<svg id="Prizes_model" xmlns="http://www.w3.org/2000/svg" width="52.588" height="53.266" viewBox="0 0 52.588 53.266" class="h-7 w-7 mr-2"><g id="Layer_1" transform="translate(0 0)"><g id="Group_925" data-name="Group 925"><path id="Path_1712" data-name="Path 1712" d="M87.139,66.371v-9.28a4.717,4.717,0,0,0-1.9-9.036,4.784,4.784,0,0,0-3.012,1.113L72,44.066c0-.081.027-.163.027-.244a4.722,4.722,0,0,0-9.443,0c0,.081.027.163.027.244l-10.176,5.1a4.67,4.67,0,0,0-3.012-1.113,4.717,4.717,0,0,0-1.9,9.036v9.28a4.717,4.717,0,0,0,1.9,9.036,4.784,4.784,0,0,0,3.012-1.113l10.23,5.1c0,.081-.027.163-.027.244a4.722,4.722,0,1,0,9.443,0c0-.081-.027-.163-.027-.244l10.23-5.1a4.67,4.67,0,0,0,3.012,1.113,4.725,4.725,0,0,0,4.722-4.721A4.867,4.867,0,0,0,87.139,66.371Zm-35.818,0v-9.28a5.169,5.169,0,0,0,1.113-.706l10.23,5.1c0,.081-.027.163-.027.244a4.727,4.727,0,0,0,2.822,4.314v9.28a5.17,5.17,0,0,0-1.113.706l-10.23-5.1c0-.081.027-.163.027-.244A4.727,4.727,0,0,0,51.321,66.371ZM67.358,48.543A4.784,4.784,0,0,0,70.37,47.43l10.23,5.1c0,.081-.027.163-.027.244s.027.163.027.244l-10.23,5.1a4.67,4.67,0,0,0-3.012-1.113,4.784,4.784,0,0,0-3.012,1.113l-10.23-5.1c0-.081.027-.163.027-.244s-.027-.163-.027-.244l10.23-5.1A4.67,4.67,0,0,0,67.358,48.543ZM69.23,75.325v-9.28a4.727,4.727,0,0,0,2.822-4.314c0-.081-.027-.163-.027-.244l10.23-5.1a5.17,5.17,0,0,0,1.113.706v9.28a4.727,4.727,0,0,0-2.822,4.314c0,.081.027.163.027.244l-10.23,5.1A5.169,5.169,0,0,0,69.23,75.325Z" transform="translate(-44.103 -39.1)" fill="#676767"></path><ellipse id="Ellipse_702" data-name="Ellipse 702" cx="5.373" cy="5.373" rx="5.373" ry="5.373" transform="translate(17.909 17.014)" fill="#95c897"></ellipse><ellipse id="Ellipse_703" data-name="Ellipse 703" cx="5.373" cy="5.373" rx="5.373" ry="5.373" transform="translate(0 26.158)" fill="#036635"></ellipse><ellipse id="Ellipse_704" data-name="Ellipse 704" cx="5.373" cy="5.373" rx="5.373" ry="5.373" transform="translate(35.818 26.267)" fill="#0b996b"></ellipse></g></g><g id="Layer_2_1_" transform="translate(37.148 35.466)"><g id="Group_926" data-name="Group 926"><rect id="Rectangle_3625" data-name="Rectangle 3625" width="12.265" height="12.021" transform="translate(1.438 1.465)" fill="#fff"></rect><path id="Path_1713" data-name="Path 1713" d="M187.106,187.6a7.747,7.747,0,0,0,7.734-7.733V169.8H179.4v10.067A7.742,7.742,0,0,0,187.106,187.6Zm-4.749-11.532,2.089-.624a2.387,2.387,0,0,0,1.031-.76l1.221-1.791a.434.434,0,0,1,.76,0l1.221,1.791a2.387,2.387,0,0,0,1.031.76l2.089.624a.444.444,0,0,1,.244.733l-1.33,1.71a2.193,2.193,0,0,0-.407,1.221l.054,2.171a.434.434,0,0,1-.624.461l-2.062-.733a2.538,2.538,0,0,0-1.275,0l-2.062.733a.446.446,0,0,1-.624-.461l.054-2.171a2,2,0,0,0-.407-1.221l-1.33-1.71A.481.481,0,0,1,182.358,176.068Z" transform="translate(-179.4 -169.8)" fill="#14bed4"></path></g></g></svg>