<svg width="480" height="190" xmlns="http://www.w3.org/2000/svg" xmlns:xlink="http://www.w3.org/1999/xlink" overflow="hidden"><defs><clipPath id="clip0"><rect x="96" y="634" width="480" height="190"/></clipPath><clipPath id="clip1"><rect x="97" y="635" width="478" height="189"/></clipPath><clipPath id="clip2"><rect x="97" y="635" width="478" height="189"/></clipPath><clipPath id="clip3"><rect x="97" y="635" width="478" height="189"/></clipPath><clipPath id="clip4"><rect x="97" y="635" width="478" height="189"/></clipPath><clipPath id="clip5"><rect x="97" y="635" width="245" height="189"/></clipPath><clipPath id="clip6"><rect x="97" y="635" width="245" height="189"/></clipPath><clipPath id="clip7"><rect x="97" y="635" width="245" height="189"/></clipPath><clipPath id="clip8"><rect x="97" y="635" width="245" height="189"/></clipPath><clipPath id="clip9"><rect x="97" y="635" width="245" height="189"/></clipPath><clipPath id="clip10"><rect x="97" y="635" width="245" height="189"/></clipPath><clipPath id="clip11"><rect x="97" y="635" width="245" height="189"/></clipPath><clipPath id="clip12"><rect x="97" y="635" width="245" height="189"/></clipPath><clipPath id="clip13"><rect x="97" y="635" width="245" height="189"/></clipPath><clipPath id="clip14"><rect x="97" y="635" width="245" height="189"/></clipPath><clipPath id="clip15"><rect x="97" y="635" width="245" height="189"/></clipPath><clipPath id="clip16"><rect x="97" y="635" width="245" height="189"/></clipPath><clipPath id="clip17"><rect x="97" y="635" width="245" height="189"/></clipPath><clipPath id="clip18"><rect x="97" y="635" width="245" height="189"/></clipPath><clipPath id="clip19"><rect x="97" y="635" width="245" height="189"/></clipPath><clipPath id="clip20"><rect x="97" y="635" width="245" height="189"/></clipPath><clipPath id="clip21"><rect x="97" y="635" width="245" height="189"/></clipPath><clipPath id="clip22"><rect x="97" y="635" width="245" height="189"/></clipPath><clipPath id="clip23"><rect x="97" y="635" width="245" height="189"/></clipPath><clipPath id="clip24"><rect x="97" y="635" width="245" height="189"/></clipPath><clipPath id="clip25"><rect x="97" y="635" width="245" height="189"/></clipPath><clipPath id="clip26"><rect x="97" y="635" width="245" height="189"/></clipPath><clipPath id="clip27"><rect x="97" y="635" width="245" height="189"/></clipPath><clipPath id="clip28"><rect x="97" y="635" width="245" height="189"/></clipPath><clipPath id="clip29"><rect x="97" y="635" width="245" height="189"/></clipPath><clipPath id="clip30"><rect x="97" y="635" width="245" height="189"/></clipPath><clipPath id="clip31"><rect x="97" y="635" width="245" height="189"/></clipPath><clipPath id="clip32"><rect x="97" y="635" width="245" height="189"/></clipPath><clipPath id="clip33"><rect x="97" y="635" width="245" height="189"/></clipPath><clipPath id="clip34"><rect x="97" y="635" width="245" height="189"/></clipPath><clipPath id="clip35"><rect x="97" y="635" width="245" height="189"/></clipPath><clipPath id="clip36"><rect x="97" y="635" width="245" height="189"/></clipPath><clipPath id="clip37"><rect x="325" y="634" width="250" height="189"/></clipPath><clipPath id="clip38"><rect x="325" y="634" width="250" height="189"/></clipPath><clipPath id="clip39"><rect x="325" y="634" width="250" height="189"/></clipPath><clipPath id="clip40"><rect x="325" y="634" width="250" height="189"/></clipPath><clipPath id="clip41"><rect x="325" y="634" width="250" height="189"/></clipPath><clipPath id="clip42"><rect x="325" y="634" width="250" height="189"/></clipPath><clipPath id="clip43"><rect x="325" y="634" width="250" height="189"/></clipPath><clipPath id="clip44"><rect x="325" y="634" width="250" height="189"/></clipPath><clipPath id="clip45"><rect x="325" y="634" width="250" height="189"/></clipPath><clipPath id="clip46"><rect x="325" y="634" width="250" height="189"/></clipPath><clipPath id="clip47"><rect x="325" y="634" width="250" height="189"/></clipPath><clipPath id="clip48"><rect x="325" y="634" width="250" height="189"/></clipPath><clipPath id="clip49"><rect x="325" y="634" width="250" height="189"/></clipPath><clipPath id="clip50"><rect x="325" y="634" width="250" height="189"/></clipPath><clipPath id="clip51"><rect x="325" y="634" width="250" height="189"/></clipPath><clipPath id="clip52"><rect x="325" y="634" width="250" height="189"/></clipPath><clipPath id="clip53"><rect x="325" y="634" width="250" height="189"/></clipPath><clipPath id="clip54"><rect x="325" y="634" width="250" height="189"/></clipPath><clipPath id="clip55"><rect x="325" y="634" width="250" height="189"/></clipPath><clipPath id="clip56"><rect x="325" y="634" width="250" height="189"/></clipPath><clipPath id="clip57"><rect x="325" y="634" width="250" height="189"/></clipPath><clipPath id="clip58"><rect x="325" y="634" width="250" height="189"/></clipPath><clipPath id="clip59"><rect x="325" y="634" width="250" height="189"/></clipPath><clipPath id="clip60"><rect x="325" y="634" width="250" height="189"/></clipPath><clipPath id="clip61"><rect x="325" y="634" width="250" height="189"/></clipPath><clipPath id="clip62"><rect x="325" y="634" width="250" height="189"/></clipPath><clipPath id="clip63"><rect x="325" y="634" width="250" height="189"/></clipPath><clipPath id="clip64"><rect x="325" y="634" width="250" height="189"/></clipPath><clipPath id="clip65"><rect x="325" y="634" width="250" height="189"/></clipPath><clipPath id="clip66"><rect x="325" y="634" width="250" height="189"/></clipPath><clipPath id="clip67"><rect x="325" y="634" width="250" height="189"/></clipPath><clipPath id="clip68"><rect x="325" y="634" width="250" height="189"/></clipPath></defs><g clip-path="url(#clip0)" transform="translate(-96 -634)"><g clip-path="url(#clip1)"><g clip-path="url(#clip2)"><g clip-path="url(#clip3)"><g clip-path="url(#clip4)"><path d="M63.6774 1525.21 308.565 1525.21 308.565 1712.85 63.6774 1712.85Z" fill="#FFFFFF" fill-rule="nonzero" fill-opacity="1" transform="matrix(1.00088 0 0 1 33.2667 -889.194)"/><g clip-path="url(#clip5)"><path d="M186.18 1560.84C216.522 1560.84 243.08 1581.22 250.933 1610.52L186.18 1627.87Z" fill="#003F5C" fill-rule="evenodd" fill-opacity="1" transform="matrix(1.00088 0 0 1 33.2667 -889.194)"/></g><g clip-path="url(#clip6)"><path d="M250.933 1610.52C254.493 1623.81 253.88 1637.87 249.174 1650.8L186.18 1627.87Z" fill="#444D85" fill-rule="evenodd" fill-opacity="1" transform="matrix(1.00088 0 0 1 33.2667 -889.194)"/></g><g clip-path="url(#clip7)"><path d="M249.174 1650.8C241.693 1671.35 224.657 1686.96 203.531 1692.62L186.18 1627.87Z" fill="#955096" fill-rule="evenodd" fill-opacity="1" transform="matrix(1.00088 0 0 1 33.2667 -889.194)"/></g><g clip-path="url(#clip8)"><path d="M203.531 1692.62C167.769 1702.21 131.01 1680.99 121.427 1645.22 120.923 1643.34 120.5 1641.43 120.162 1639.51L186.18 1627.87Z" fill="#DD5081" fill-rule="evenodd" fill-opacity="1" transform="matrix(1.00088 0 0 1 33.2667 -889.194)"/></g><g clip-path="url(#clip9)"><path d="M120.162 1639.51C116.003 1615.93 124.743 1591.92 143.09 1576.52L186.18 1627.87Z" fill="#FF6E53" fill-rule="evenodd" fill-opacity="1" transform="matrix(1.00088 0 0 1 33.2667 -889.194)"/></g><g clip-path="url(#clip10)"><path d="M143.09 1576.52C152.104 1568.95 162.951 1563.9 174.539 1561.85L186.18 1627.87Z" fill="#FEA501" fill-rule="evenodd" fill-opacity="1" transform="matrix(1.00088 0 0 1 33.2667 -889.194)"/></g><g clip-path="url(#clip11)"><path d="M174.539 1561.85C178.382 1561.18 182.278 1560.84 186.18 1560.84L186.18 1627.87Z" fill="#002637" fill-rule="evenodd" fill-opacity="1" transform="matrix(1.00088 0 0 1 33.2667 -889.194)"/></g><g clip-path="url(#clip12)"><text fill="#000000" fill-opacity="1" font-family="Calibri,Calibri_MSFontService,sans-serif" font-style="normal" font-variant="normal" font-weight="700" font-stretch="normal" font-size="18" text-anchor="start" direction="ltr" writing-mode="lr-tb" unicode-bidi="normal" text-decoration="none" transform="matrix(0.339007 0 0 0.33871 264.775 674)">18</text></g><g clip-path="url(#clip13)"><text fill="#000000" fill-opacity="1" font-family="Calibri,Calibri_MSFontService,sans-serif" font-style="normal" font-variant="normal" font-weight="700" font-stretch="normal" font-size="18" text-anchor="start" direction="ltr" writing-mode="lr-tb" unicode-bidi="normal" text-decoration="none" transform="matrix(0.339007 0 0 0.33871 272.339 674)">-</text></g><g clip-path="url(#clip14)"><text fill="#000000" fill-opacity="1" font-family="Calibri,Calibri_MSFontService,sans-serif" font-style="normal" font-variant="normal" font-weight="700" font-stretch="normal" font-size="18" text-anchor="start" direction="ltr" writing-mode="lr-tb" unicode-bidi="normal" text-decoration="none" transform="matrix(0.339007 0 0 0.33871 275.586 674)">24</text></g><g clip-path="url(#clip15)"><text fill="#000000" fill-opacity="1" font-family="Calibri,Calibri_MSFontService,sans-serif" font-style="normal" font-variant="normal" font-weight="400" font-stretch="normal" font-size="18" text-anchor="start" direction="ltr" writing-mode="lr-tb" unicode-bidi="normal" text-decoration="none" transform="matrix(0.339007 0 0 0.33871 267.999 681)">21%</text></g><g clip-path="url(#clip16)"><text fill="#000000" fill-opacity="1" font-family="Calibri,Calibri_MSFontService,sans-serif" font-style="normal" font-variant="normal" font-weight="700" font-stretch="normal" font-size="18" text-anchor="start" direction="ltr" writing-mode="lr-tb" unicode-bidi="normal" text-decoration="none" transform="matrix(0.339007 0 0 0.33871 292.292 741)">25</text></g><g clip-path="url(#clip17)"><text fill="#000000" fill-opacity="1" font-family="Calibri,Calibri_MSFontService,sans-serif" font-style="normal" font-variant="normal" font-weight="700" font-stretch="normal" font-size="18" text-anchor="start" direction="ltr" writing-mode="lr-tb" unicode-bidi="normal" text-decoration="none" transform="matrix(0.339007 0 0 0.33871 299.855 741)">-</text></g><g clip-path="url(#clip18)"><text fill="#000000" fill-opacity="1" font-family="Calibri,Calibri_MSFontService,sans-serif" font-style="normal" font-variant="normal" font-weight="700" font-stretch="normal" font-size="18" text-anchor="start" direction="ltr" writing-mode="lr-tb" unicode-bidi="normal" text-decoration="none" transform="matrix(0.339007 0 0 0.33871 303.103 741)">34</text></g><g clip-path="url(#clip19)"><text fill="#000000" fill-opacity="1" font-family="Calibri,Calibri_MSFontService,sans-serif" font-style="normal" font-variant="normal" font-weight="400" font-stretch="normal" font-size="18" text-anchor="start" direction="ltr" writing-mode="lr-tb" unicode-bidi="normal" text-decoration="none" transform="matrix(0.339007 0 0 0.33871 295.516 748)">10%</text></g><g clip-path="url(#clip20)"><text fill="#000000" fill-opacity="1" font-family="Calibri,Calibri_MSFontService,sans-serif" font-style="normal" font-variant="normal" font-weight="700" font-stretch="normal" font-size="18" text-anchor="start" direction="ltr" writing-mode="lr-tb" unicode-bidi="normal" text-decoration="none" transform="matrix(0.339007 0 0 0.33871 269.473 797)">35</text></g><g clip-path="url(#clip21)"><text fill="#000000" fill-opacity="1" font-family="Calibri,Calibri_MSFontService,sans-serif" font-style="normal" font-variant="normal" font-weight="700" font-stretch="normal" font-size="18" text-anchor="start" direction="ltr" writing-mode="lr-tb" unicode-bidi="normal" text-decoration="none" transform="matrix(0.339007 0 0 0.33871 275.657 797)">-</text></g><g clip-path="url(#clip22)"><text fill="#000000" fill-opacity="1" font-family="Calibri,Calibri_MSFontService,sans-serif" font-style="normal" font-variant="normal" font-weight="700" font-stretch="normal" font-size="18" text-anchor="start" direction="ltr" writing-mode="lr-tb" unicode-bidi="normal" text-decoration="none" transform="matrix(0.339007 0 0 0.33871 278.904 797)">44</text></g><g clip-path="url(#clip23)"><text fill="#000000" fill-opacity="1" font-family="Calibri,Calibri_MSFontService,sans-serif" font-style="normal" font-variant="normal" font-weight="400" font-stretch="normal" font-size="18" text-anchor="start" direction="ltr" writing-mode="lr-tb" unicode-bidi="normal" text-decoration="none" transform="matrix(0.339007 0 0 0.33871 272.006 805)">15%</text></g><g clip-path="url(#clip24)"><text fill="#000000" fill-opacity="1" font-family="Calibri,Calibri_MSFontService,sans-serif" font-style="normal" font-variant="normal" font-weight="700" font-stretch="normal" font-size="18" text-anchor="start" direction="ltr" writing-mode="lr-tb" unicode-bidi="normal" text-decoration="none" transform="matrix(0.339007 0 0 0.33871 162.49 805)">45</text></g><g clip-path="url(#clip25)"><text fill="#000000" fill-opacity="1" font-family="Calibri,Calibri_MSFontService,sans-serif" font-style="normal" font-variant="normal" font-weight="700" font-stretch="normal" font-size="18" text-anchor="start" direction="ltr" writing-mode="lr-tb" unicode-bidi="normal" text-decoration="none" transform="matrix(0.339007 0 0 0.33871 170.053 805)">-</text></g><g clip-path="url(#clip26)"><text fill="#000000" fill-opacity="1" font-family="Calibri,Calibri_MSFontService,sans-serif" font-style="normal" font-variant="normal" font-weight="700" font-stretch="normal" font-size="18" text-anchor="start" direction="ltr" writing-mode="lr-tb" unicode-bidi="normal" text-decoration="none" transform="matrix(0.339007 0 0 0.33871 173.301 805)">54</text></g><g clip-path="url(#clip27)"><text fill="#000000" fill-opacity="1" font-family="Calibri,Calibri_MSFontService,sans-serif" font-style="normal" font-variant="normal" font-weight="400" font-stretch="normal" font-size="18" text-anchor="start" direction="ltr" writing-mode="lr-tb" unicode-bidi="normal" text-decoration="none" transform="matrix(0.339007 0 0 0.33871 165.714 812)">26%</text></g><g clip-path="url(#clip28)"><text fill="#000000" fill-opacity="1" font-family="Calibri,Calibri_MSFontService,sans-serif" font-style="normal" font-variant="normal" font-weight="700" font-stretch="normal" font-size="18" text-anchor="start" direction="ltr" writing-mode="lr-tb" unicode-bidi="normal" text-decoration="none" transform="matrix(0.339007 0 0 0.33871 134.119 711)">55</text></g><g clip-path="url(#clip29)"><text fill="#000000" fill-opacity="1" font-family="Calibri,Calibri_MSFontService,sans-serif" font-style="normal" font-variant="normal" font-weight="700" font-stretch="normal" font-size="18" text-anchor="start" direction="ltr" writing-mode="lr-tb" unicode-bidi="normal" text-decoration="none" transform="matrix(0.339007 0 0 0.33871 141.682 711)">-</text></g><g clip-path="url(#clip30)"><text fill="#000000" fill-opacity="1" font-family="Calibri,Calibri_MSFontService,sans-serif" font-style="normal" font-variant="normal" font-weight="700" font-stretch="normal" font-size="18" text-anchor="start" direction="ltr" writing-mode="lr-tb" unicode-bidi="normal" text-decoration="none" transform="matrix(0.339007 0 0 0.33871 144.93 711)">64</text></g><g clip-path="url(#clip31)"><text fill="#000000" fill-opacity="1" font-family="Calibri,Calibri_MSFontService,sans-serif" font-style="normal" font-variant="normal" font-weight="400" font-stretch="normal" font-size="18" text-anchor="start" direction="ltr" writing-mode="lr-tb" unicode-bidi="normal" text-decoration="none" transform="matrix(0.339007 0 0 0.33871 137.343 718)">17%</text></g><g clip-path="url(#clip32)"><text fill="#000000" fill-opacity="1" font-family="Calibri,Calibri_MSFontService,sans-serif" font-style="normal" font-variant="normal" font-weight="700" font-stretch="normal" font-size="18" text-anchor="start" direction="ltr" writing-mode="lr-tb" unicode-bidi="normal" text-decoration="none" transform="matrix(0.339007 0 0 0.33871 178.426 666)">&gt;64</text></g><g clip-path="url(#clip33)"><text fill="#000000" fill-opacity="1" font-family="Calibri,Calibri_MSFontService,sans-serif" font-style="normal" font-variant="normal" font-weight="400" font-stretch="normal" font-size="18" text-anchor="start" direction="ltr" writing-mode="lr-tb" unicode-bidi="normal" text-decoration="none" transform="matrix(0.339007 0 0 0.33871 179.308 673)">8%</text></g><g clip-path="url(#clip34)"><text fill="#000000" fill-opacity="1" font-family="Calibri,Calibri_MSFontService,sans-serif" font-style="normal" font-variant="normal" font-weight="700" font-stretch="normal" font-size="18" text-anchor="start" direction="ltr" writing-mode="lr-tb" unicode-bidi="normal" text-decoration="none" transform="matrix(0.339007 0 0 0.33871 195.655 660)">Prefer not to say</text></g><g clip-path="url(#clip35)"><text fill="#000000" fill-opacity="1" font-family="Calibri,Calibri_MSFontService,sans-serif" font-style="normal" font-variant="normal" font-weight="400" font-stretch="normal" font-size="18" text-anchor="start" direction="ltr" writing-mode="lr-tb" unicode-bidi="normal" text-decoration="none" transform="matrix(0.339007 0 0 0.33871 213.032 668)">3%</text></g><g clip-path="url(#clip36)"><text fill="#000000" fill-opacity="1" font-family="Calibri,Calibri_MSFontService,sans-serif" font-style="normal" font-variant="normal" font-weight="400" font-stretch="normal" font-size="28" text-anchor="start" direction="ltr" writing-mode="lr-tb" unicode-bidi="normal" text-decoration="none" transform="matrix(0.339007 0 0 0.33871 213.422 650)">Yes</text></g><path d="M292.645 1524.19 541.258 1524.19 541.258 1711.84 292.645 1711.84Z" fill="#FFFFFF" fill-rule="nonzero" fill-opacity="1" transform="matrix(1.00088 0 0 1 33.2667 -889.194)"/><g clip-path="url(#clip37)"><path d="M417.023 1559.79C453.285 1559.79 482.976 1588.63 484.03 1624.88L417.023 1626.83Z" fill="#003F5C" fill-rule="evenodd" fill-opacity="1" transform="matrix(1.00088 0 0 1 33.2667 -889.194)"/></g><g clip-path="url(#clip38)"><path d="M484.03 1624.88C484.257 1632.7 483.115 1640.49 480.656 1647.92L417.023 1626.83Z" fill="#444D85" fill-rule="evenodd" fill-opacity="1" transform="matrix(1.00088 0 0 1 33.2667 -889.194)"/></g><g clip-path="url(#clip39)"><path d="M480.656 1647.92C474.099 1667.7 458.718 1683.31 439.032 1690.15L417.023 1626.83Z" fill="#955096" fill-rule="evenodd" fill-opacity="1" transform="matrix(1.00088 0 0 1 33.2667 -889.194)"/></g><g clip-path="url(#clip40)"><path d="M439.032 1690.15C404.06 1702.31 365.857 1683.81 353.701 1648.84 353.593 1648.53 353.491 1648.23 353.386 1647.92L417.023 1626.83Z" fill="#DD5081" fill-rule="evenodd" fill-opacity="1" transform="matrix(1.00088 0 0 1 33.2667 -889.194)"/></g><g clip-path="url(#clip41)"><path d="M353.386 1647.92C346.724 1627.81 349.958 1605.73 362.108 1588.38L417.023 1626.83Z" fill="#FF6E53" fill-rule="evenodd" fill-opacity="1" transform="matrix(1.00088 0 0 1 33.2667 -889.194)"/></g><g clip-path="url(#clip42)"><path d="M362.108 1588.38C374.457 1570.75 394.522 1560.11 416.047 1559.8L417.023 1626.83Z" fill="#FEA501" fill-rule="evenodd" fill-opacity="1" transform="matrix(1.00088 0 0 1 33.2667 -889.194)"/></g><g clip-path="url(#clip43)"><path d="M416.047 1559.8C416.372 1559.8 416.698 1559.79 417.023 1559.79L417.023 1626.83Z" fill="#002637" fill-rule="evenodd" fill-opacity="1" transform="matrix(1.00088 0 0 1 33.2667 -889.194)"/></g><g clip-path="url(#clip44)"><text fill="#000000" fill-opacity="1" font-family="Calibri,Calibri_MSFontService,sans-serif" font-style="normal" font-variant="normal" font-weight="700" font-stretch="normal" font-size="18" text-anchor="start" direction="ltr" writing-mode="lr-tb" unicode-bidi="normal" text-decoration="none" transform="matrix(0.339007 0 0 0.33871 502.022 678)">18</text></g><g clip-path="url(#clip45)"><text fill="#000000" fill-opacity="1" font-family="Calibri,Calibri_MSFontService,sans-serif" font-style="normal" font-variant="normal" font-weight="700" font-stretch="normal" font-size="18" text-anchor="start" direction="ltr" writing-mode="lr-tb" unicode-bidi="normal" text-decoration="none" transform="matrix(0.339007 0 0 0.33871 509.585 678)">-</text></g><g clip-path="url(#clip46)"><text fill="#000000" fill-opacity="1" font-family="Calibri,Calibri_MSFontService,sans-serif" font-style="normal" font-variant="normal" font-weight="700" font-stretch="normal" font-size="18" text-anchor="start" direction="ltr" writing-mode="lr-tb" unicode-bidi="normal" text-decoration="none" transform="matrix(0.339007 0 0 0.33871 512.833 678)">24</text></g><g clip-path="url(#clip47)"><text fill="#000000" fill-opacity="1" font-family="Calibri,Calibri_MSFontService,sans-serif" font-style="normal" font-variant="normal" font-weight="400" font-stretch="normal" font-size="18" text-anchor="start" direction="ltr" writing-mode="lr-tb" unicode-bidi="normal" text-decoration="none" transform="matrix(0.339007 0 0 0.33871 505.246 685)">24%</text></g><g clip-path="url(#clip48)"><text fill="#000000" fill-opacity="1" font-family="Calibri,Calibri_MSFontService,sans-serif" font-style="normal" font-variant="normal" font-weight="700" font-stretch="normal" font-size="18" text-anchor="start" direction="ltr" writing-mode="lr-tb" unicode-bidi="normal" text-decoration="none" transform="matrix(0.339007 0 0 0.33871 522.657 748)">25</text></g><g clip-path="url(#clip49)"><text fill="#000000" fill-opacity="1" font-family="Calibri,Calibri_MSFontService,sans-serif" font-style="normal" font-variant="normal" font-weight="700" font-stretch="normal" font-size="18" text-anchor="start" direction="ltr" writing-mode="lr-tb" unicode-bidi="normal" text-decoration="none" transform="matrix(0.339007 0 0 0.33871 530.221 748)">-</text></g><g clip-path="url(#clip50)"><text fill="#000000" fill-opacity="1" font-family="Calibri,Calibri_MSFontService,sans-serif" font-style="normal" font-variant="normal" font-weight="700" font-stretch="normal" font-size="18" text-anchor="start" direction="ltr" writing-mode="lr-tb" unicode-bidi="normal" text-decoration="none" transform="matrix(0.339007 0 0 0.33871 533.468 748)">34</text></g><g clip-path="url(#clip51)"><text fill="#000000" fill-opacity="1" font-family="Calibri,Calibri_MSFontService,sans-serif" font-style="normal" font-variant="normal" font-weight="400" font-stretch="normal" font-size="18" text-anchor="start" direction="ltr" writing-mode="lr-tb" unicode-bidi="normal" text-decoration="none" transform="matrix(0.339007 0 0 0.33871 527.427 755)">6%</text></g><g clip-path="url(#clip52)"><text fill="#000000" fill-opacity="1" font-family="Calibri,Calibri_MSFontService,sans-serif" font-style="normal" font-variant="normal" font-weight="700" font-stretch="normal" font-size="18" text-anchor="start" direction="ltr" writing-mode="lr-tb" unicode-bidi="normal" text-decoration="none" transform="matrix(0.339007 0 0 0.33871 503.1 794)">35</text></g><g clip-path="url(#clip53)"><text fill="#000000" fill-opacity="1" font-family="Calibri,Calibri_MSFontService,sans-serif" font-style="normal" font-variant="normal" font-weight="700" font-stretch="normal" font-size="18" text-anchor="start" direction="ltr" writing-mode="lr-tb" unicode-bidi="normal" text-decoration="none" transform="matrix(0.339007 0 0 0.33871 509.283 794)">-</text></g><g clip-path="url(#clip54)"><text fill="#000000" fill-opacity="1" font-family="Calibri,Calibri_MSFontService,sans-serif" font-style="normal" font-variant="normal" font-weight="700" font-stretch="normal" font-size="18" text-anchor="start" direction="ltr" writing-mode="lr-tb" unicode-bidi="normal" text-decoration="none" transform="matrix(0.339007 0 0 0.33871 512.531 794)">44</text></g><g clip-path="url(#clip55)"><text fill="#000000" fill-opacity="1" font-family="Calibri,Calibri_MSFontService,sans-serif" font-style="normal" font-variant="normal" font-weight="400" font-stretch="normal" font-size="18" text-anchor="start" direction="ltr" writing-mode="lr-tb" unicode-bidi="normal" text-decoration="none" transform="matrix(0.339007 0 0 0.33871 505.632 801)">15%</text></g><g clip-path="url(#clip56)"><text fill="#000000" fill-opacity="1" font-family="Calibri,Calibri_MSFontService,sans-serif" font-style="normal" font-variant="normal" font-weight="700" font-stretch="normal" font-size="18" text-anchor="start" direction="ltr" writing-mode="lr-tb" unicode-bidi="normal" text-decoration="none" transform="matrix(0.339007 0 0 0.33871 400.232 807)">45</text></g><g clip-path="url(#clip57)"><text fill="#000000" fill-opacity="1" font-family="Calibri,Calibri_MSFontService,sans-serif" font-style="normal" font-variant="normal" font-weight="700" font-stretch="normal" font-size="18" text-anchor="start" direction="ltr" writing-mode="lr-tb" unicode-bidi="normal" text-decoration="none" transform="matrix(0.339007 0 0 0.33871 407.795 807)">-</text></g><g clip-path="url(#clip58)"><text fill="#000000" fill-opacity="1" font-family="Calibri,Calibri_MSFontService,sans-serif" font-style="normal" font-variant="normal" font-weight="700" font-stretch="normal" font-size="18" text-anchor="start" direction="ltr" writing-mode="lr-tb" unicode-bidi="normal" text-decoration="none" transform="matrix(0.339007 0 0 0.33871 411.043 807)">54</text></g><g clip-path="url(#clip59)"><text fill="#000000" fill-opacity="1" font-family="Calibri,Calibri_MSFontService,sans-serif" font-style="normal" font-variant="normal" font-weight="400" font-stretch="normal" font-size="18" text-anchor="start" direction="ltr" writing-mode="lr-tb" unicode-bidi="normal" text-decoration="none" transform="matrix(0.339007 0 0 0.33871 403.456 815)">25%</text></g><g clip-path="url(#clip60)"><text fill="#000000" fill-opacity="1" font-family="Calibri,Calibri_MSFontService,sans-serif" font-style="normal" font-variant="normal" font-weight="700" font-stretch="normal" font-size="18" text-anchor="start" direction="ltr" writing-mode="lr-tb" unicode-bidi="normal" text-decoration="none" transform="matrix(0.339007 0 0 0.33871 361.655 725)">55</text></g><g clip-path="url(#clip61)"><text fill="#000000" fill-opacity="1" font-family="Calibri,Calibri_MSFontService,sans-serif" font-style="normal" font-variant="normal" font-weight="700" font-stretch="normal" font-size="18" text-anchor="start" direction="ltr" writing-mode="lr-tb" unicode-bidi="normal" text-decoration="none" transform="matrix(0.339007 0 0 0.33871 369.219 725)">-</text></g><g clip-path="url(#clip62)"><text fill="#000000" fill-opacity="1" font-family="Calibri,Calibri_MSFontService,sans-serif" font-style="normal" font-variant="normal" font-weight="700" font-stretch="normal" font-size="18" text-anchor="start" direction="ltr" writing-mode="lr-tb" unicode-bidi="normal" text-decoration="none" transform="matrix(0.339007 0 0 0.33871 372.467 725)">64</text></g><g clip-path="url(#clip63)"><text fill="#000000" fill-opacity="1" font-family="Calibri,Calibri_MSFontService,sans-serif" font-style="normal" font-variant="normal" font-weight="400" font-stretch="normal" font-size="18" text-anchor="start" direction="ltr" writing-mode="lr-tb" unicode-bidi="normal" text-decoration="none" transform="matrix(0.339007 0 0 0.33871 364.879 733)">15%</text></g><g clip-path="url(#clip64)"><text fill="#000000" fill-opacity="1" font-family="Calibri,Calibri_MSFontService,sans-serif" font-style="normal" font-variant="normal" font-weight="700" font-stretch="normal" font-size="18" text-anchor="start" direction="ltr" writing-mode="lr-tb" unicode-bidi="normal" text-decoration="none" transform="matrix(0.339007 0 0 0.33871 405.585 666)">&gt;64</text></g><g clip-path="url(#clip65)"><text fill="#000000" fill-opacity="1" font-family="Calibri,Calibri_MSFontService,sans-serif" font-style="normal" font-variant="normal" font-weight="400" font-stretch="normal" font-size="18" text-anchor="start" direction="ltr" writing-mode="lr-tb" unicode-bidi="normal" text-decoration="none" transform="matrix(0.339007 0 0 0.33871 404.92 674)">15%</text></g><g clip-path="url(#clip66)"><text fill="#000000" fill-opacity="1" font-family="Calibri,Calibri_MSFontService,sans-serif" font-style="normal" font-variant="normal" font-weight="700" font-stretch="normal" font-size="18" text-anchor="start" direction="ltr" writing-mode="lr-tb" unicode-bidi="normal" text-decoration="none" transform="matrix(0.339007 0 0 0.33871 428.522 658)">Prefer not to say</text></g><g clip-path="url(#clip67)"><text fill="#000000" fill-opacity="1" font-family="Calibri,Calibri_MSFontService,sans-serif" font-style="normal" font-variant="normal" font-weight="400" font-stretch="normal" font-size="18" text-anchor="start" direction="ltr" writing-mode="lr-tb" unicode-bidi="normal" text-decoration="none" transform="matrix(0.339007 0 0 0.33871 445.899 665)">0%</text></g><g clip-path="url(#clip68)"><text fill="#000000" fill-opacity="1" font-family="Calibri,Calibri_MSFontService,sans-serif" font-style="normal" font-variant="normal" font-weight="400" font-stretch="normal" font-size="28" text-anchor="start" direction="ltr" writing-mode="lr-tb" unicode-bidi="normal" text-decoration="none" transform="matrix(0.339007 0 0 0.33871 445.089 649)">No</text></g></g></g></g></g></g></svg>