<svg width="353" height="210" xmlns="http://www.w3.org/2000/svg" xmlns:xlink="http://www.w3.org/1999/xlink" overflow="hidden"><defs><clipPath id="clip0"><rect x="84" y="976" width="353" height="210"/></clipPath><clipPath id="clip1"><rect x="85" y="976" width="352" height="210"/></clipPath><clipPath id="clip2"><rect x="85" y="976" width="352" height="210"/></clipPath><clipPath id="clip3"><rect x="85" y="976" width="352" height="210"/></clipPath><clipPath id="clip4"><rect x="85" y="976" width="352" height="210"/></clipPath><clipPath id="clip5"><rect x="133" y="1011" width="294" height="122"/></clipPath><clipPath id="clip6"><rect x="133" y="1011" width="294" height="122"/></clipPath><clipPath id="clip7"><rect x="133" y="1011" width="294" height="122"/></clipPath><clipPath id="clip8"><rect x="133" y="1011" width="294" height="122"/></clipPath><clipPath id="clip9"><rect x="133" y="1011" width="294" height="122"/></clipPath><clipPath id="clip10"><rect x="133" y="1011" width="294" height="122"/></clipPath><clipPath id="clip11"><rect x="133" y="1011" width="294" height="122"/></clipPath><clipPath id="clip12"><rect x="85" y="976" width="352" height="210"/></clipPath><clipPath id="clip13"><rect x="85" y="976" width="352" height="210"/></clipPath><clipPath id="clip14"><rect x="85" y="976" width="352" height="210"/></clipPath><clipPath id="clip15"><rect x="85" y="976" width="352" height="210"/></clipPath><clipPath id="clip16"><rect x="85" y="976" width="352" height="210"/></clipPath><clipPath id="clip17"><rect x="85" y="976" width="352" height="210"/></clipPath><clipPath id="clip18"><rect x="85" y="976" width="352" height="210"/></clipPath><clipPath id="clip19"><rect x="85" y="976" width="352" height="210"/></clipPath><clipPath id="clip20"><rect x="85" y="976" width="352" height="210"/></clipPath><clipPath id="clip21"><rect x="85" y="976" width="352" height="210"/></clipPath><clipPath id="clip22"><rect x="85" y="976" width="352" height="210"/></clipPath><clipPath id="clip23"><rect x="85" y="976" width="352" height="210"/></clipPath><clipPath id="clip24"><rect x="85" y="976" width="352" height="210"/></clipPath><clipPath id="clip25"><rect x="85" y="976" width="352" height="210"/></clipPath><clipPath id="clip26"><rect x="85" y="976" width="352" height="210"/></clipPath><clipPath id="clip27"><rect x="85" y="976" width="352" height="210"/></clipPath><clipPath id="clip28"><rect x="85" y="976" width="352" height="210"/></clipPath><clipPath id="clip29"><rect x="85" y="976" width="352" height="210"/></clipPath><clipPath id="clip30"><rect x="85" y="976" width="352" height="210"/></clipPath><clipPath id="clip31"><rect x="85" y="976" width="352" height="210"/></clipPath><clipPath id="clip32"><rect x="85" y="976" width="352" height="210"/></clipPath><clipPath id="clip33"><rect x="85" y="976" width="352" height="210"/></clipPath><clipPath id="clip34"><rect x="85" y="976" width="352" height="210"/></clipPath></defs><g clip-path="url(#clip0)" transform="translate(-84 -976)"><g clip-path="url(#clip1)"><g clip-path="url(#clip2)"><g clip-path="url(#clip3)"><g clip-path="url(#clip4)"><path d="M87.7576 1306.18 438.788 1306.18 438.788 1515.64 87.7576 1515.64Z" fill="#FFFFFF" fill-rule="nonzero" fill-opacity="1" transform="matrix(1 0 0 1.0026 -2.27273 -333.583)"/><g clip-path="url(#clip5)"><path d="M143.03 1358.55 170.667 1358.55 170.667 1461.82 143.03 1461.82Z" fill="#003F5C" fill-rule="nonzero" fill-opacity="1" transform="matrix(1 0 0 1.0026 -2.27273 -333.583)"/></g><g clip-path="url(#clip6)"><path d="M184.727 1435.64 212.364 1435.64 212.364 1461.82 184.727 1461.82Z" fill="#444D85" fill-rule="nonzero" fill-opacity="1" transform="matrix(1 0 0 1.0026 -2.27273 -333.583)"/></g><g clip-path="url(#clip7)"><path d="M226.424 1398.79 254.061 1398.79 254.061 1461.82 226.424 1461.82Z" fill="#955096" fill-rule="nonzero" fill-opacity="1" transform="matrix(1 0 0 1.0026 -2.27273 -333.583)"/></g><g clip-path="url(#clip8)"><path d="M268.121 1352.24 295.758 1352.24 295.758 1461.82 268.121 1461.82Z" fill="#DD5081" fill-rule="nonzero" fill-opacity="1" transform="matrix(1 0 0 1.0026 -2.27273 -333.583)"/></g><g clip-path="url(#clip9)"><path d="M309.818 1396.85 337.455 1396.85 337.455 1461.82 309.818 1461.82Z" fill="#FF6E53" fill-rule="nonzero" fill-opacity="1" transform="matrix(1 0 0 1.0026 -2.27273 -333.583)"/></g><g clip-path="url(#clip10)"><path d="M351.515 1401.21 379.152 1401.21 379.152 1461.82 351.515 1461.82Z" fill="#FEA501" fill-rule="nonzero" fill-opacity="1" transform="matrix(1 0 0 1.0026 -2.27273 -333.583)"/></g><g clip-path="url(#clip11)"><path d="M393.212 1459.39 420.849 1459.39 420.849 1461.82 393.212 1461.82Z" fill="#002637" fill-rule="nonzero" fill-opacity="1" transform="matrix(1 0 0 1.0026 -2.27273 -333.583)"/></g><g clip-path="url(#clip12)"><path d="M0 0 7.63539e-05 119.758" stroke="#000000" stroke-width="0.727273" stroke-linecap="butt" stroke-linejoin="round" stroke-miterlimit="10" stroke-opacity="1" fill="none" fill-rule="evenodd" transform="matrix(1 0 0 -1.0026 133.97 1132.04)"/></g><g clip-path="url(#clip13)"><path d="M133.333 1461.82 136.242 1461.82M133.333 1444.85 136.242 1444.85M133.333 1427.88 136.242 1427.88M133.333 1410.42 136.242 1410.42M133.333 1393.45 136.242 1393.45M133.333 1376.48 136.242 1376.48M133.333 1359.03 136.242 1359.03M133.333 1342.06 136.242 1342.06" stroke="#000000" stroke-width="0.727273" stroke-linecap="butt" stroke-linejoin="round" stroke-miterlimit="10" stroke-opacity="1" fill="none" fill-rule="nonzero" transform="matrix(1 0 0 1.0026 -2.27273 -333.583)"/></g><g clip-path="url(#clip14)"><path d="M136.242 1461.82 428.121 1461.82" stroke="#000000" stroke-width="0.727273" stroke-linecap="butt" stroke-linejoin="round" stroke-miterlimit="10" stroke-opacity="1" fill="none" fill-rule="evenodd" transform="matrix(1 0 0 1.0026 -2.27273 -333.583)"/></g><g clip-path="url(#clip15)"><path d="M136.242 1461.82 136.242 1464.73M177.939 1461.82 177.939 1464.73M219.636 1461.82 219.636 1464.73M261.333 1461.82 261.333 1464.73M303.03 1461.82 303.03 1464.73M344.727 1461.82 344.727 1464.73M386.424 1461.82 386.424 1464.73M428.121 1461.82 428.121 1464.73" stroke="#000000" stroke-width="0.727273" stroke-linecap="butt" stroke-linejoin="round" stroke-miterlimit="10" stroke-opacity="1" fill="none" fill-rule="nonzero" transform="matrix(1 0 0 1.0026 -2.27273 -333.583)"/></g><g clip-path="url(#clip16)"><text fill="#000000" fill-opacity="1" font-family="Calibri,Calibri_MSFontService,sans-serif" font-style="normal" font-variant="normal" font-weight="400" font-stretch="normal" font-size="18" text-anchor="start" direction="ltr" writing-mode="lr-tb" unicode-bidi="normal" text-decoration="none" transform="matrix(0.484848 0 0 0.486111 121.355 1135)">0</text></g><g clip-path="url(#clip17)"><text fill="#000000" fill-opacity="1" font-family="Calibri,Calibri_MSFontService,sans-serif" font-style="normal" font-variant="normal" font-weight="400" font-stretch="normal" font-size="18" text-anchor="start" direction="ltr" writing-mode="lr-tb" unicode-bidi="normal" text-decoration="none" transform="matrix(0.484848 0 0 0.486111 116.934 1117)">20</text></g><g clip-path="url(#clip18)"><text fill="#000000" fill-opacity="1" font-family="Calibri,Calibri_MSFontService,sans-serif" font-style="normal" font-variant="normal" font-weight="400" font-stretch="normal" font-size="18" text-anchor="start" direction="ltr" writing-mode="lr-tb" unicode-bidi="normal" text-decoration="none" transform="matrix(0.484848 0 0 0.486111 116.934 1100)">40</text></g><g clip-path="url(#clip19)"><text fill="#000000" fill-opacity="1" font-family="Calibri,Calibri_MSFontService,sans-serif" font-style="normal" font-variant="normal" font-weight="400" font-stretch="normal" font-size="18" text-anchor="start" direction="ltr" writing-mode="lr-tb" unicode-bidi="normal" text-decoration="none" transform="matrix(0.484848 0 0 0.486111 116.934 1083)">60</text></g><g clip-path="url(#clip20)"><text fill="#000000" fill-opacity="1" font-family="Calibri,Calibri_MSFontService,sans-serif" font-style="normal" font-variant="normal" font-weight="400" font-stretch="normal" font-size="18" text-anchor="start" direction="ltr" writing-mode="lr-tb" unicode-bidi="normal" text-decoration="none" transform="matrix(0.484848 0 0 0.486111 116.934 1066)">80</text></g><g clip-path="url(#clip21)"><text fill="#000000" fill-opacity="1" font-family="Calibri,Calibri_MSFontService,sans-serif" font-style="normal" font-variant="normal" font-weight="400" font-stretch="normal" font-size="18" text-anchor="start" direction="ltr" writing-mode="lr-tb" unicode-bidi="normal" text-decoration="none" transform="matrix(0.484848 0 0 0.486111 112.512 1049)">100</text></g><g clip-path="url(#clip22)"><text fill="#000000" fill-opacity="1" font-family="Calibri,Calibri_MSFontService,sans-serif" font-style="normal" font-variant="normal" font-weight="400" font-stretch="normal" font-size="18" text-anchor="start" direction="ltr" writing-mode="lr-tb" unicode-bidi="normal" text-decoration="none" transform="matrix(0.484848 0 0 0.486111 112.512 1032)">120</text></g><g clip-path="url(#clip23)"><text fill="#000000" fill-opacity="1" font-family="Calibri,Calibri_MSFontService,sans-serif" font-style="normal" font-variant="normal" font-weight="400" font-stretch="normal" font-size="18" text-anchor="start" direction="ltr" writing-mode="lr-tb" unicode-bidi="normal" text-decoration="none" transform="matrix(0.484848 0 0 0.486111 112.512 1015)">140</text></g><g clip-path="url(#clip24)"><text fill="#000000" fill-opacity="1" font-family="Calibri,Calibri_MSFontService,sans-serif" font-style="normal" font-variant="normal" font-weight="400" font-stretch="normal" font-size="18" text-anchor="start" direction="ltr" writing-mode="lr-tb" unicode-bidi="normal" text-decoration="none" transform="matrix(0.484848 0 0 0.486111 142.565 1147)">18 - 24</text></g><g clip-path="url(#clip25)"><text fill="#000000" fill-opacity="1" font-family="Calibri,Calibri_MSFontService,sans-serif" font-style="normal" font-variant="normal" font-weight="400" font-stretch="normal" font-size="18" text-anchor="start" direction="ltr" writing-mode="lr-tb" unicode-bidi="normal" text-decoration="none" transform="matrix(0.484848 0 0 0.486111 184.252 1147)">25 - 34</text></g><g clip-path="url(#clip26)"><text fill="#000000" fill-opacity="1" font-family="Calibri,Calibri_MSFontService,sans-serif" font-style="normal" font-variant="normal" font-weight="400" font-stretch="normal" font-size="18" text-anchor="start" direction="ltr" writing-mode="lr-tb" unicode-bidi="normal" text-decoration="none" transform="matrix(0.484848 0 0 0.486111 225.94 1147)">35 - 44</text></g><g clip-path="url(#clip27)"><text fill="#000000" fill-opacity="1" font-family="Calibri,Calibri_MSFontService,sans-serif" font-style="normal" font-variant="normal" font-weight="400" font-stretch="normal" font-size="18" text-anchor="start" direction="ltr" writing-mode="lr-tb" unicode-bidi="normal" text-decoration="none" transform="matrix(0.484848 0 0 0.486111 267.627 1147)">45 - 54</text></g><g clip-path="url(#clip28)"><text fill="#000000" fill-opacity="1" font-family="Calibri,Calibri_MSFontService,sans-serif" font-style="normal" font-variant="normal" font-weight="400" font-stretch="normal" font-size="18" text-anchor="start" direction="ltr" writing-mode="lr-tb" unicode-bidi="normal" text-decoration="none" transform="matrix(0.484848 0 0 0.486111 309.315 1147)">55 - 64</text></g><g clip-path="url(#clip29)"><text fill="#000000" fill-opacity="1" font-family="Calibri,Calibri_MSFontService,sans-serif" font-style="normal" font-variant="normal" font-weight="400" font-stretch="normal" font-size="18" text-anchor="start" direction="ltr" writing-mode="lr-tb" unicode-bidi="normal" text-decoration="none" transform="matrix(0.484848 0 0 0.486111 356.562 1147)">&gt;64</text></g><g clip-path="url(#clip30)"><text fill="#000000" fill-opacity="1" font-family="Calibri,Calibri_MSFontService,sans-serif" font-style="normal" font-variant="normal" font-weight="400" font-stretch="normal" font-size="18" text-anchor="start" direction="ltr" writing-mode="lr-tb" unicode-bidi="normal" text-decoration="none" transform="matrix(0.484848 0 0 0.486111 386.826 1147)">Prefer not</text></g><g clip-path="url(#clip31)"><text fill="#000000" fill-opacity="1" font-family="Calibri,Calibri_MSFontService,sans-serif" font-style="normal" font-variant="normal" font-weight="400" font-stretch="normal" font-size="18" text-anchor="start" direction="ltr" writing-mode="lr-tb" unicode-bidi="normal" text-decoration="none" transform="matrix(0.484848 0 0 0.486111 394.322 1157)">to say</text></g><g clip-path="url(#clip32)"><text fill="#000000" fill-opacity="1" font-family="Calibri,Calibri_MSFontService,sans-serif" font-style="normal" font-variant="normal" font-weight="400" font-stretch="normal" font-size="20" text-anchor="start" direction="ltr" writing-mode="lr-tb" unicode-bidi="normal" text-decoration="none" transform="matrix(2.96884e-17 -0.486111 0.484848 2.97657e-17 107.464 1118)">Number of participants</text></g><g clip-path="url(#clip33)"><text fill="#000000" fill-opacity="1" font-family="Calibri,Calibri_MSFontService,sans-serif" font-style="normal" font-variant="normal" font-weight="400" font-stretch="normal" font-size="20" text-anchor="start" direction="ltr" writing-mode="lr-tb" unicode-bidi="normal" text-decoration="none" transform="matrix(0.484848 0 0 0.486111 244.551 1172)">Age of participant</text></g><g clip-path="url(#clip34)"><text fill="#000000" fill-opacity="1" font-family="Calibri,Calibri_MSFontService,sans-serif" font-style="normal" font-variant="normal" font-weight="400" font-stretch="normal" font-size="28" text-anchor="start" direction="ltr" writing-mode="lr-tb" unicode-bidi="normal" text-decoration="none" transform="matrix(0.484848 0 0 0.486111 192.047 996)">Age range of participants</text></g></g></g></g></g></g></svg>