<svg width="215" height="206" xmlns="http://www.w3.org/2000/svg" xmlns:xlink="http://www.w3.org/1999/xlink" overflow="hidden"><defs><clipPath id="clip0"><rect x="470" y="974" width="215" height="206"/></clipPath><clipPath id="clip1"><rect x="471" y="975" width="214" height="205"/></clipPath><clipPath id="clip2"><rect x="471" y="975" width="214" height="205"/></clipPath><clipPath id="clip3"><rect x="632" y="1013" width="24" height="19"/></clipPath><clipPath id="clip4"><rect x="632" y="1013" width="24" height="19"/></clipPath><clipPath id="clip5"><rect x="632" y="1013" width="24" height="19"/></clipPath><clipPath id="clip6"><rect x="632" y="1013" width="24" height="19"/></clipPath><clipPath id="clip7"><rect x="656" y="1090" width="24" height="20"/></clipPath><clipPath id="clip8"><rect x="656" y="1090" width="24" height="20"/></clipPath><clipPath id="clip9"><rect x="656" y="1090" width="24" height="20"/></clipPath><clipPath id="clip10"><rect x="656" y="1090" width="24" height="20"/></clipPath><clipPath id="clip11"><rect x="631" y="1145" width="24" height="20"/></clipPath><clipPath id="clip12"><rect x="631" y="1145" width="24" height="20"/></clipPath><clipPath id="clip13"><rect x="631" y="1145" width="24" height="20"/></clipPath><clipPath id="clip14"><rect x="631" y="1145" width="24" height="20"/></clipPath><clipPath id="clip15"><rect x="519" y="1157" width="25" height="19"/></clipPath><clipPath id="clip16"><rect x="519" y="1157" width="25" height="19"/></clipPath><clipPath id="clip17"><rect x="519" y="1157" width="25" height="19"/></clipPath><clipPath id="clip18"><rect x="519" y="1157" width="25" height="19"/></clipPath><clipPath id="clip19"><rect x="477" y="1063" width="25" height="20"/></clipPath><clipPath id="clip20"><rect x="477" y="1063" width="25" height="20"/></clipPath><clipPath id="clip21"><rect x="477" y="1063" width="25" height="20"/></clipPath><clipPath id="clip22"><rect x="477" y="1063" width="25" height="20"/></clipPath><clipPath id="clip23"><rect x="526" y="1000" width="17" height="20"/></clipPath><clipPath id="clip24"><rect x="526" y="1000" width="17" height="20"/></clipPath><clipPath id="clip25"><rect x="551" y="994" width="52" height="20"/></clipPath><clipPath id="clip26"><rect x="551" y="994" width="52" height="20"/></clipPath></defs><g clip-path="url(#clip0)" transform="translate(-470 -974)"><g clip-path="url(#clip1)"><g clip-path="url(#clip2)"><path d="M352.127 916.191 670.77 916.191 670.77 1145.79 352.127 1145.79Z" fill="#FFFFFF" fill-rule="nonzero" fill-opacity="1" transform="matrix(1 0 0 1.00022 102.254 53.6849)"/><path d="M476.375 959.848C515.713 959.848 548.269 990.436 550.719 1029.7L476.375 1034.34Z" fill="#003F5C" fill-rule="evenodd" fill-opacity="1" transform="matrix(1 0 0 1.00022 102.254 53.6849)"/><path d="M550.719 1029.7C551.319 1039.3 550.05 1048.94 546.985 1058.06L476.375 1034.34Z" fill="#444D85" fill-rule="evenodd" fill-opacity="1" transform="matrix(1 0 0 1.00022 102.254 53.6849)"/><path d="M546.985 1058.06C539.556 1080.17 522.203 1097.52 500.097 1104.95L476.375 1034.34Z" fill="#955096" fill-rule="evenodd" fill-opacity="1" transform="matrix(1 0 0 1.00022 102.254 53.6849)"/><path d="M500.097 1104.95C461.102 1118.05 418.865 1097.06 405.762 1058.06 405.567 1057.47 405.376 1056.88 405.196 1056.29L476.375 1034.34Z" fill="#DD5081" fill-rule="evenodd" fill-opacity="1" transform="matrix(1 0 0 1.00022 102.254 53.6849)"/><path d="M405.196 1056.29C398.127 1033.38 402.521 1008.47 416.996 989.358L476.375 1034.34Z" fill="#FF6E53" fill-rule="evenodd" fill-opacity="1" transform="matrix(1 0 0 1.00022 102.254 53.6849)"/><path d="M416.996 989.358C430.488 971.549 451.259 960.735 473.59 959.9L476.375 1034.34Z" fill="#FEA501" fill-rule="evenodd" fill-opacity="1" transform="matrix(1 0 0 1.00022 102.254 53.6849)"/><path d="M473.59 959.9C474.517 959.863 475.444 959.848 476.375 959.848L476.375 1034.34Z" fill="#44546A" fill-rule="evenodd" fill-opacity="1" transform="matrix(1 0 0 1.00022 102.254 53.6849)"/><g clip-path="url(#clip3)"><text fill="#000000" fill-opacity="1" font-family="Calibri,Calibri_MSFontService,sans-serif" font-style="normal" font-variant="normal" font-weight="700" font-stretch="normal" font-size="18" text-anchor="start" direction="ltr" writing-mode="lr-tb" unicode-bidi="normal" text-decoration="none" transform="matrix(0.367948 0 0 0.368028 634.774 1021)">18</text></g><g clip-path="url(#clip4)"><text fill="#000000" fill-opacity="1" font-family="Calibri,Calibri_MSFontService,sans-serif" font-style="normal" font-variant="normal" font-weight="700" font-stretch="normal" font-size="18" text-anchor="start" direction="ltr" writing-mode="lr-tb" unicode-bidi="normal" text-decoration="none" transform="matrix(0.367948 0 0 0.368028 642.983 1021)">-</text></g><g clip-path="url(#clip5)"><text fill="#000000" fill-opacity="1" font-family="Calibri,Calibri_MSFontService,sans-serif" font-style="normal" font-variant="normal" font-weight="700" font-stretch="normal" font-size="18" text-anchor="start" direction="ltr" writing-mode="lr-tb" unicode-bidi="normal" text-decoration="none" transform="matrix(0.367948 0 0 0.368028 646.508 1021)">24</text></g><g clip-path="url(#clip6)"><text fill="#000000" fill-opacity="1" font-family="Calibri,Calibri_MSFontService,sans-serif" font-style="normal" font-variant="normal" font-weight="400" font-stretch="normal" font-size="18" text-anchor="start" direction="ltr" writing-mode="lr-tb" unicode-bidi="normal" text-decoration="none" transform="matrix(0.367948 0 0 0.368028 638.273 1029)">24%</text></g><g clip-path="url(#clip7)"><text fill="#000000" fill-opacity="1" font-family="Calibri,Calibri_MSFontService,sans-serif" font-style="normal" font-variant="normal" font-weight="700" font-stretch="normal" font-size="18" text-anchor="start" direction="ltr" writing-mode="lr-tb" unicode-bidi="normal" text-decoration="none" transform="matrix(0.367948 0 0 0.368028 658.783 1098)">25</text></g><g clip-path="url(#clip8)"><text fill="#000000" fill-opacity="1" font-family="Calibri,Calibri_MSFontService,sans-serif" font-style="normal" font-variant="normal" font-weight="700" font-stretch="normal" font-size="18" text-anchor="start" direction="ltr" writing-mode="lr-tb" unicode-bidi="normal" text-decoration="none" transform="matrix(0.367948 0 0 0.368028 666.988 1098)">-</text></g><g clip-path="url(#clip9)"><text fill="#000000" fill-opacity="1" font-family="Calibri,Calibri_MSFontService,sans-serif" font-style="normal" font-variant="normal" font-weight="700" font-stretch="normal" font-size="18" text-anchor="start" direction="ltr" writing-mode="lr-tb" unicode-bidi="normal" text-decoration="none" transform="matrix(0.367948 0 0 0.368028 670.513 1098)">34</text></g><g clip-path="url(#clip10)"><text fill="#000000" fill-opacity="1" font-family="Calibri,Calibri_MSFontService,sans-serif" font-style="normal" font-variant="normal" font-weight="400" font-stretch="normal" font-size="18" text-anchor="start" direction="ltr" writing-mode="lr-tb" unicode-bidi="normal" text-decoration="none" transform="matrix(0.367948 0 0 0.368028 663.956 1106)">6%</text></g><g clip-path="url(#clip11)"><text fill="#000000" fill-opacity="1" font-family="Calibri,Calibri_MSFontService,sans-serif" font-style="normal" font-variant="normal" font-weight="700" font-stretch="normal" font-size="18" text-anchor="start" direction="ltr" writing-mode="lr-tb" unicode-bidi="normal" text-decoration="none" transform="matrix(0.367948 0 0 0.368028 633.961 1153)">35</text></g><g clip-path="url(#clip12)"><text fill="#000000" fill-opacity="1" font-family="Calibri,Calibri_MSFontService,sans-serif" font-style="normal" font-variant="normal" font-weight="700" font-stretch="normal" font-size="18" text-anchor="start" direction="ltr" writing-mode="lr-tb" unicode-bidi="normal" text-decoration="none" transform="matrix(0.367948 0 0 0.368028 642.17 1153)">-</text></g><g clip-path="url(#clip13)"><text fill="#000000" fill-opacity="1" font-family="Calibri,Calibri_MSFontService,sans-serif" font-style="normal" font-variant="normal" font-weight="700" font-stretch="normal" font-size="18" text-anchor="start" direction="ltr" writing-mode="lr-tb" unicode-bidi="normal" text-decoration="none" transform="matrix(0.367948 0 0 0.368028 645.695 1153)">44</text></g><g clip-path="url(#clip14)"><text fill="#000000" fill-opacity="1" font-family="Calibri,Calibri_MSFontService,sans-serif" font-style="normal" font-variant="normal" font-weight="400" font-stretch="normal" font-size="18" text-anchor="start" direction="ltr" writing-mode="lr-tb" unicode-bidi="normal" text-decoration="none" transform="matrix(0.367948 0 0 0.368028 637.46 1161)">15%</text></g><g clip-path="url(#clip15)"><text fill="#000000" fill-opacity="1" font-family="Calibri,Calibri_MSFontService,sans-serif" font-style="normal" font-variant="normal" font-weight="700" font-stretch="normal" font-size="18" text-anchor="start" direction="ltr" writing-mode="lr-tb" unicode-bidi="normal" text-decoration="none" transform="matrix(0.367948 0 0 0.368028 521.924 1165)">45</text></g><g clip-path="url(#clip16)"><text fill="#000000" fill-opacity="1" font-family="Calibri,Calibri_MSFontService,sans-serif" font-style="normal" font-variant="normal" font-weight="700" font-stretch="normal" font-size="18" text-anchor="start" direction="ltr" writing-mode="lr-tb" unicode-bidi="normal" text-decoration="none" transform="matrix(0.367948 0 0 0.368028 530.133 1165)">-</text></g><g clip-path="url(#clip17)"><text fill="#000000" fill-opacity="1" font-family="Calibri,Calibri_MSFontService,sans-serif" font-style="normal" font-variant="normal" font-weight="700" font-stretch="normal" font-size="18" text-anchor="start" direction="ltr" writing-mode="lr-tb" unicode-bidi="normal" text-decoration="none" transform="matrix(0.367948 0 0 0.368028 533.658 1165)">54</text></g><g clip-path="url(#clip18)"><text fill="#000000" fill-opacity="1" font-family="Calibri,Calibri_MSFontService,sans-serif" font-style="normal" font-variant="normal" font-weight="400" font-stretch="normal" font-size="18" text-anchor="start" direction="ltr" writing-mode="lr-tb" unicode-bidi="normal" text-decoration="none" transform="matrix(0.367948 0 0 0.368028 525.424 1173)">25%</text></g><g clip-path="url(#clip19)"><text fill="#000000" fill-opacity="1" font-family="Calibri,Calibri_MSFontService,sans-serif" font-style="normal" font-variant="normal" font-weight="700" font-stretch="normal" font-size="18" text-anchor="start" direction="ltr" writing-mode="lr-tb" unicode-bidi="normal" text-decoration="none" transform="matrix(0.367948 0 0 0.368028 480.549 1072)">55</text></g><g clip-path="url(#clip20)"><text fill="#000000" fill-opacity="1" font-family="Calibri,Calibri_MSFontService,sans-serif" font-style="normal" font-variant="normal" font-weight="700" font-stretch="normal" font-size="18" text-anchor="start" direction="ltr" writing-mode="lr-tb" unicode-bidi="normal" text-decoration="none" transform="matrix(0.367948 0 0 0.368028 488.758 1072)">-</text></g><g clip-path="url(#clip21)"><text fill="#000000" fill-opacity="1" font-family="Calibri,Calibri_MSFontService,sans-serif" font-style="normal" font-variant="normal" font-weight="700" font-stretch="normal" font-size="18" text-anchor="start" direction="ltr" writing-mode="lr-tb" unicode-bidi="normal" text-decoration="none" transform="matrix(0.367948 0 0 0.368028 492.283 1072)">64</text></g><g clip-path="url(#clip22)"><text fill="#000000" fill-opacity="1" font-family="Calibri,Calibri_MSFontService,sans-serif" font-style="normal" font-variant="normal" font-weight="400" font-stretch="normal" font-size="18" text-anchor="start" direction="ltr" writing-mode="lr-tb" unicode-bidi="normal" text-decoration="none" transform="matrix(0.367948 0 0 0.368028 484.048 1080)">15%</text></g><g clip-path="url(#clip23)"><text fill="#000000" fill-opacity="1" font-family="Calibri,Calibri_MSFontService,sans-serif" font-style="normal" font-variant="normal" font-weight="700" font-stretch="normal" font-size="18" text-anchor="start" direction="ltr" writing-mode="lr-tb" unicode-bidi="normal" text-decoration="none" transform="matrix(0.367948 0 0 0.368028 529.309 1009)">&gt;64</text></g><g clip-path="url(#clip24)"><text fill="#000000" fill-opacity="1" font-family="Calibri,Calibri_MSFontService,sans-serif" font-style="normal" font-variant="normal" font-weight="400" font-stretch="normal" font-size="18" text-anchor="start" direction="ltr" writing-mode="lr-tb" unicode-bidi="normal" text-decoration="none" transform="matrix(0.367948 0 0 0.368028 528.592 1017)">14%</text></g><g clip-path="url(#clip25)"><text fill="#000000" fill-opacity="1" font-family="Calibri,Calibri_MSFontService,sans-serif" font-style="normal" font-variant="normal" font-weight="700" font-stretch="normal" font-size="18" text-anchor="start" direction="ltr" writing-mode="lr-tb" unicode-bidi="normal" text-decoration="none" transform="matrix(0.367948 0 0 0.368028 554.094 1003)">Prefer not to say</text></g><g clip-path="url(#clip26)"><text fill="#000000" fill-opacity="1" font-family="Calibri,Calibri_MSFontService,sans-serif" font-style="normal" font-variant="normal" font-weight="400" font-stretch="normal" font-size="18" text-anchor="start" direction="ltr" writing-mode="lr-tb" unicode-bidi="normal" text-decoration="none" transform="matrix(0.367948 0 0 0.368028 572.955 1011)">1%</text></g><text fill="#000000" fill-opacity="1" font-family="Calibri,Calibri_MSFontService,sans-serif" font-style="normal" font-variant="normal" font-weight="400" font-stretch="normal" font-size="28" text-anchor="start" direction="ltr" writing-mode="lr-tb" unicode-bidi="normal" text-decoration="none" transform="matrix(0.367948 0 0 0.368028 529.118 989)">Age range of participants</text><path d="M352.127 916.191 670.77 916.191 670.77 1145.79 352.127 1145.79Z" stroke="#D9D9D9" stroke-width="0.551922" stroke-linecap="butt" stroke-linejoin="round" stroke-miterlimit="10" stroke-opacity="1" fill="none" fill-rule="nonzero" transform="matrix(1 0 0 1.00022 102.254 53.6849)"/></g></g></g></svg>