<svg width="211" height="172" xmlns="http://www.w3.org/2000/svg" xmlns:xlink="http://www.w3.org/1999/xlink" overflow="hidden"><defs><clipPath id="clip0"><rect x="538" y="1123" width="211" height="172"/></clipPath><clipPath id="clip1"><rect x="558.615" y="1123" width="176.782" height="172.012"/></clipPath></defs><g clip-path="url(#clip0)" transform="translate(-538 -1123)"><g clip-path="url(#clip1)"><path d="M195.828 86.6905C195.828 137.8 155.489 181.051 99.3799 185.298 69.4893 187.56 47.3308 182.94 34.1127 168.424L25.0545 174.182 21.1631 167.726 29.5975 162.545C23.2259 152.66 19.9172 139.314 19.9172 121.91 19.9172 70.8006 62.6821 20.9142 114.849 14.8471 165.616 8.9436 195.828 35.5796 195.828 86.6905" fill="#A2DFD9" transform="matrix(1.00192 0 0 1 538.88 1109.17)"/></g><path d="M84.8324 135.167C84.8897 135.084 84.9486 135.002 85.0043 134.917 84.9486 135.002 84.8897 135.084 84.8324 135.167ZM84.5787 135.521C84.6654 135.405 84.7505 135.287 84.8324 135.167 84.7505 135.287 84.6654 135.405 84.5787 135.521ZM84.4199 135.731C84.2774 135.911 84.1317 136.087 83.9811 136.258 84.1317 136.087 84.2774 135.911 84.4199 135.731ZM84.5787 135.521C84.5263 135.591 84.4739 135.662 84.4199 135.731 84.4739 135.662 84.5263 135.591 84.5787 135.521ZM85.5315 134.023C85.4512 134.172 85.3694 134.319 85.2843 134.465 85.3694 134.321 85.4512 134.172 85.5315 134.023ZM85.8572 133.376C85.7901 133.522 85.7181 133.666 85.6461 133.807 85.7181 133.666 85.7885 133.522 85.8572 133.376ZM85.2843 134.465C85.1926 134.617 85.1009 134.77 85.0043 134.917 85.1009 134.77 85.1926 134.617 85.2843 134.465ZM85.8572 133.376C85.8736 133.34 85.89 133.304 85.9064 133.268 85.89 133.304 85.8736 133.34 85.8572 133.376ZM85.6461 133.807C85.6084 133.881 85.5707 133.951 85.5315 134.023 85.5707 133.951 85.6084 133.881 85.6461 133.807ZM208.309 66.5621 208.309 82.8384C208.309 103.363 179.34 120.001 143.607 120.001 128.496 120.001 114.597 117.026 103.584 112.041 105.467 110.54 106.228 107.629 105.3 104.434 105.219 104.157 105.128 103.885 105.026 103.617 105.025 103.613 105.023 103.609 105.021 103.604 104.925 103.35 104.818 103.101 104.704 102.857 104.701 102.849 104.696 102.841 104.692 102.833L83.7241 115.214C84.8471 117.025 85.7541 119.016 86.3697 121.129 86.5285 121.674 86.6611 122.216 86.774 122.753 87.6057 126.69 87.2341 130.354 85.9064 133.268 86.7184 131.477 87.1719 129.403 87.2062 127.157L31.3673 161.458C31.7192 168.766 27.7754 174.535 21.299 175.192 13.444 175.989 4.84588 168.962 2.09552 159.497 0.0360167 152.416 1.83521 145.976 6.16049 142.847L6.16704 142.844C6.47318 142.623 6.79406 142.421 7.12476 142.235L62.5004 107.02C63.8461 106.166 65.4129 105.611 67.1646 105.434 70.6451 105.08 74.273 106.266 77.4719 108.518L87.974 101.821C82.2146 96.2661 78.9027 89.7749 78.9027 82.8384L78.9027 66.5621C78.9027 46.0375 107.872 29.3994 143.607 29.3994 179.34 29.3994 208.309 46.0375 208.309 66.5621" fill="#FFFFFF" transform="matrix(1.00192 0 0 1 538.88 1109.17)"/><path d="M179.992 76.4962C175.462 80.7756 168.376 84.1939 160.043 86.1257 159.948 86.147 159.855 86.1568 159.762 86.1568 159.197 86.1568 158.685 85.7688 158.552 85.1958 158.396 84.5279 158.814 83.86 159.482 83.7044 167.392 81.8725 174.072 78.6703 178.286 74.6904 178.785 74.2189 179.571 74.2419 180.043 74.7412 180.514 75.2389 180.491 76.0247 179.992 76.4962ZM143.607 87.9315C128.103 87.9315 113.931 83.3246 106.619 75.9085 106.138 75.4206 106.143 74.6331 106.632 74.1518 107.12 73.6705 107.908 73.6771 108.389 74.1649 113.767 79.6198 125.842 85.448 143.607 85.448 144.293 85.448 144.848 86.0046 144.848 86.6905 144.848 87.3765 144.293 87.9315 143.607 87.9315ZM143.607 39.4203C117.508 39.4203 96.3512 51.5726 96.3512 66.5621 96.3512 81.5516 117.508 93.704 143.607 93.704 169.704 93.704 190.861 81.5516 190.861 66.5621 190.861 51.5726 169.704 39.4203 143.607 39.4203" fill="#B89AD3" transform="matrix(1.00192 0 0 1 538.88 1109.17)"/><path d="M19.4376 168.786C14.518 169.285 9.13351 164.884 7.41125 158.958 5.689 153.03 8.28057 147.821 13.2001 147.321 18.118 146.822 23.5025 151.223 25.2248 157.149 26.947 163.077 24.3571 168.286 19.4376 168.786" fill="#6943A4" transform="matrix(1.00192 0 0 1 538.88 1109.17)"/><path d="M189.937 71.9237C189.703 72.5949 189.427 73.2563 189.109 73.9079 189.106 73.9144 189.102 73.921 189.099 73.9275 188.993 74.1453 188.881 74.363 188.765 74.5791 188.518 74.4563 188.31 74.255 188.187 73.9848 182.939 62.5004 164.608 54.4785 143.607 54.4785 122.606 54.4785 104.275 62.5004 99.0263 73.9848 98.9018 74.2533 98.6923 74.453 98.4451 74.5758 98.3305 74.3597 98.2192 74.1436 98.1127 73.9259 98.1095 73.9193 98.1062 73.9128 98.1029 73.9062 97.9998 73.6934 97.8999 73.479 97.8033 73.2629 97.6085 72.8208 97.4317 72.3755 97.2745 71.9253 97.2745 71.9237 97.2745 71.9237 97.2745 71.9237 103.489 60.1364 122.28 51.9934 143.607 51.9934 164.932 51.9934 183.723 60.1364 189.937 71.9237ZM143.607 102.482C108.613 102.482 80.1453 86.368 80.1453 66.5621 80.1453 46.7562 108.613 30.642 143.607 30.642 178.599 30.642 207.067 46.7562 207.067 66.5621 207.067 86.368 178.599 102.482 143.607 102.482ZM207.067 82.8384C207.067 102.646 178.599 118.758 143.607 118.758 129.383 118.758 116.237 116.097 105.644 111.608 106.95 109.666 107.317 106.92 106.493 104.087 105.03 99.0541 100.518 95.4524 96.2317 95.8879 95.3116 95.9812 94.4505 96.2644 93.6696 96.7327 93.6172 96.7556 93.5648 96.7834 93.5157 96.8161L88.1214 100.254C83.043 95.0923 80.1453 89.1544 80.1453 82.8384L80.1453 77.1101C83.2018 83.4278 89.0153 89.1953 97.2352 93.9168 109.641 101.043 126.109 104.967 143.607 104.967 161.103 104.967 177.57 101.043 189.977 93.9168 198.198 89.1953 204.01 83.4278 207.067 77.1101ZM102.161 111.48C102.079 111.521 102.003 111.57 101.932 111.627L87.5615 120.779C86.9181 118.569 85.9669 116.485 84.7866 114.587 83.3541 112.289 81.5844 110.267 79.6116 108.626L94.7206 98.9935C94.7665 98.9722 94.8107 98.9477 94.8549 98.9198 95.3444 98.6088 95.8928 98.4205 96.4822 98.3599 99.1523 98.0865 102.179 100.339 103.615 103.469 103.808 103.892 103.975 104.329 104.106 104.779 104.106 104.781 104.106 104.781 104.106 104.781 104.967 107.741 104.167 110.496 102.161 111.48ZM85.926 127.943C85.6624 131.957 83.9451 135.341 81.0015 137.153L77.7551 139.216C78.5639 137.142 78.942 134.784 78.8536 132.288 78.7914 130.556 78.5066 128.758 77.9794 126.941 75.3224 117.798 67.3938 110.797 59.6273 110.321L63.1651 108.07C64.3864 107.295 65.773 106.824 67.2906 106.67 74.5693 105.932 82.5895 112.573 85.1762 121.476 85.8261 123.714 86.0602 125.908 85.926 127.943ZM72.3346 142.662 31.4917 168.619C32.4314 166.26 32.7965 163.562 32.564 160.723 32.4445 159.264 32.1727 157.769 31.7356 156.263 29.0917 147.167 21.2368 140.193 13.5063 139.65L53.2621 114.368C53.3718 114.335 53.4799 114.294 53.583 114.229 54.8027 113.454 56.191 112.983 57.7069 112.829 64.9807 112.089 73.0058 118.732 75.5925 127.635 76.213 129.768 76.4569 131.862 76.3636 133.817 76.1868 137.52 74.7805 140.707 72.3346 142.662ZM21.1745 173.956C20.8029 173.993 20.4313 174.011 20.058 174.011 13.0953 174.011 5.74303 167.599 3.28734 159.15 1.87123 154.274 2.33945 149.579 4.57248 146.267 6.1916 143.867 8.57361 142.444 11.4631 142.151 11.8331 142.114 12.2064 142.096 12.5796 142.096 19.5407 142.096 26.8946 148.508 29.3487 156.957 30.7664 161.833 30.2982 166.53 28.0636 169.84 26.4461 172.24 24.0624 173.663 21.1745 173.956ZM189.977 39.2074C186.637 37.2887 183.001 35.6041 179.132 34.1651 168.629 30.2557 156.393 28.1569 143.607 28.1569 126.109 28.1569 109.641 32.0811 97.2352 39.2074 84.613 46.4566 77.6602 56.1713 77.6602 66.5621L77.6602 82.8384C77.6602 89.5375 80.5546 95.955 85.9915 101.613L77.467 107.048C74.1944 104.931 70.5485 103.841 67.0385 104.198 65.1346 104.391 63.3828 104.989 61.8325 105.973L20.3593 132.347 6.41097 141.217C6.13266 141.377 5.86253 141.549 5.59732 141.732L5.49418 141.799C5.44834 141.827 5.40905 141.863 5.36976 141.898 4.27453 142.7 3.30862 143.698 2.51298 144.877-0.134244 148.803-0.721971 154.258 0.902055 159.844 3.65569 169.318 12.0656 176.495 20.0973 176.495 20.541 176.495 20.9846 176.474 21.425 176.428 22.7724 176.292 24.0493 175.946 25.2248 175.411 25.4 175.387 25.5686 175.326 25.7208 175.229L34.9771 169.347 72.405 145.56C72.5196 145.53 72.6309 145.483 72.7357 145.419 73.109 145.19 73.4642 144.938 73.8064 144.671L82.3194 139.259C87.1047 136.315 89.2985 130.123 88.1492 123.349L103.381 113.651C103.386 113.647 103.392 113.644 103.397 113.639 103.504 113.584 103.602 113.52 103.704 113.457 115.111 118.508 129 121.244 143.607 121.244 161.103 121.244 177.57 117.319 189.977 110.195 191.175 109.507 192.321 108.797 193.416 108.065 203.856 101.094 209.552 92.2437 209.552 82.8384L209.552 66.5621C209.552 56.1713 202.6 46.4566 189.977 39.2074" fill="#593EA1" transform="matrix(1.00192 0 0 1 538.88 1109.17)"/></g></svg>