<svg width="246" height="229" xmlns="http://www.w3.org/2000/svg" xmlns:xlink="http://www.w3.org/1999/xlink" overflow="hidden"><defs><clipPath id="clip0"><rect x="520" y="1601" width="246" height="229"/></clipPath><clipPath id="clip1"><rect x="684.818" y="1798.74" width="68.9586" height="28.3982"/></clipPath><clipPath id="clip2"><rect x="675.952" y="1685.81" width="88.7552" height="116.867"/></clipPath></defs><g clip-path="url(#clip0)" transform="translate(-520 -1601)"><path d="M168.816 117.639C166.338 117.639 163.844 115.063 163.713 114.925L164.069 114.586C164.108 114.624 167.852 118.492 170.413 116.631L170.701 117.029C170.103 117.466 169.458 117.639 168.816 117.639ZM173.549 119.689C173.549 119.667 173.551 119.646 173.551 119.625 173.545 119.523 173.536 119.413 173.526 119.306 173.249 116.385 171.398 111.38 171.398 111.38L170.688 111.692C169.866 110.603 168.858 109.647 167.623 108.866L138.362 112.889C138.362 112.889 127.631 126.473 139.179 149.277L149.015 149.277C148.769 142.291 149.481 137.155 150.597 133.382L144.205 125.114 144.594 124.812 150.774 132.805C151.807 129.561 153.142 127.385 154.389 125.94 157.368 122.484 160.438 122.301 160.569 122.296L160.592 122.788C160.473 122.794 148.607 123.694 149.508 149.267L149.26 149.277 166.784 149.277C166.784 149.277 174.902 132.257 173.549 119.689" fill="#100F0D" transform="matrix(1 0 0 1.00111 520.796 1601)"/><path d="M32.5244 188.095 18.6615 202.348 18.6615 209.391 74.4191 209.391C74.4191 209.391 71.5946 214.797 60.9044 219.702 50.2143 224.606 25.0629 228.758 13.911 220.331 2.76104 211.905 15.6311 177.07 15.6311 177.07L32.5244 188.095" fill="#BB4D81" transform="matrix(1 0 0 1.00111 520.796 1601)"/><g clip-path="url(#clip1)"><path d="M227.063 197.683C227.063 197.683 232.273 212.465 232.651 224.133 232.651 224.133 194.881 230.267 176.185 219.577 162.749 211.894 164.196 209.391 164.196 209.391L223.652 209.391 223.652 202.851 218.47 197.652C218.47 197.652 224.283 198.373 227.063 197.683" fill="#100F0D" transform="matrix(1 0 0 1.00111 520.796 1601)"/></g><path d="M18.9078 209.144 223.405 209.144 223.405 202.953 170.147 149.523 70.3285 149.523 18.9078 202.448ZM223.898 209.637 18.4153 209.637 18.4153 202.246 18.4845 202.175 70.1188 149.031 170.353 149.031 170.424 149.104 223.898 202.749 223.898 209.637" fill="#100F0D" transform="matrix(1 0 0 1.00111 520.796 1601)"/><path d="M134.348 159.265 117.426 187.15 83.3949 185.149 103.757 158.21 134.348 159.265" fill="#FFFFFF" transform="matrix(1 0 0 1.00111 520.796 1601)"/><path d="M83.8682 184.93 117.293 186.896 133.921 159.498 103.877 158.46ZM117.559 187.406 82.9215 185.369 103.638 157.958 134.777 159.034 134.56 159.394 117.559 187.406" fill="#100F0D" transform="matrix(1 0 0 1.00111 520.796 1601)"/><path d="M95.7397 153.002 121.707 152.725 103.336 180.608 72.7682 179.106 95.7397 153.002" fill="#FFFFFF" transform="matrix(1 0 0 1.00111 520.796 1601)"/><path d="M73.2916 178.886 103.207 180.354 121.247 152.975 95.8532 153.248ZM103.465 180.862 103.324 180.855 72.2468 179.327 95.6281 152.758 95.7378 152.756 122.167 152.475 103.465 180.862" fill="#100F0D" transform="matrix(1 0 0 1.00111 520.796 1601)"/><path d="M143.183 156.217 125.07 184.164 90.9757 182.946 113.57 156.134 143.183 156.217" fill="#FFFFFF" transform="matrix(1 0 0 1.00111 520.796 1601)"/><path d="M91.4913 182.717 124.939 183.914 142.731 156.461 113.684 156.381ZM125.201 184.416 125.061 184.41 90.462 183.173 113.457 155.886 113.57 155.888 143.635 155.973 125.201 184.416" fill="#100F0D" transform="matrix(1 0 0 1.00111 520.796 1601)"/><path d="M61.5394 100.898C61.5394 100.898 62.8978 110.268 59.1612 112.162 57.8952 112.8 56.5503 113.195 55.3189 113.428 53.9547 105.82 53.1735 98.4988 55.4728 92.8978 56.0365 91.5241 56.4483 90.2292 56.7331 89.0035 58.432 87.8683 59.4826 86.687 60.0348 85.5421 60.131 85.9289 60.2175 86.3406 60.2791 86.7793 61.2488 93.5251 59.7442 96.0976 63.7694 97.3117 63.7694 97.3117 63.575 98.2294 61.5394 100.898" fill="#EBADB1" transform="matrix(1 0 0 1.00111 520.796 1601)"/><path d="M61.7318 106.153C60.662 106.647 57.0736 105.416 57.0736 105.416 59.065 105.416 61.4432 102.793 62.0743 102.841 62.7054 102.891 61.7799 104.444 61.7799 104.444 61.7799 104.444 62.8016 105.658 61.7318 106.153" fill="#BB4D81" transform="matrix(1 0 0 1.00111 520.796 1601)"/><path d="M59.6827 96.8403 56.7927 95.6666 59.6827 92.2706C60.1906 92.7458 59.6827 96.8403 59.6827 96.8403" fill="#FFFFFF" transform="matrix(1 0 0 1.00111 520.796 1601)"/><path d="M86.4464 153.51C86.431 154.722 83.3641 162.089 79.2581 164.437 75.1502 166.784 71.3021 164.91 71.3021 164.91 71.3021 164.91 71.2963 163.944 71.635 162.514 70.7268 157.545 75.1175 154.376 76.3509 153.843 77.0089 153.558 77.082 153.945 76.9935 154.395 77.0454 154.356 77.0955 154.316 77.1474 154.278 84.5955 148.907 82.6926 151.632 82.6926 151.632 82.6926 151.632 83.9375 150.801 84.4858 150.982 85.0322 151.164 84.5647 151.992 84.5647 151.992 84.5647 151.992 85.0823 151.395 85.9115 151.576 86.7389 151.757 84.3396 154.695 84.3396 154.695 84.3396 154.695 86.4657 152.213 86.4464 153.51" fill="#EBADB1" transform="matrix(1 0 0 1.00111 520.796 1601)"/><path d="M80.326 163.38 80.6415 163.759C80.6762 163.73 84.1068 160.831 85.9596 155.892L85.4979 155.719C83.6931 160.531 80.3587 163.353 80.326 163.38ZM86.1521 152.898C85.4248 152.898 82.8908 155.567 81.8364 156.713L82.1981 157.048C83.7912 155.317 85.7557 153.425 86.1521 153.391L86.154 152.898C86.154 152.898 86.1521 152.898 86.1521 152.898ZM84.3723 151.838C84.5512 151.595 84.659 151.309 84.6224 151.243 84.6224 151.243 84.5666 151.189 84.3184 151.212 82.1211 151.422 78.173 156.34 78.1345 156.39L77.7497 156.084C77.8824 155.915 80.4741 152.688 82.7349 151.322 81.9133 151.368 79.4813 152.977 78.2768 153.779 76.5779 154.909 74.3825 158.197 74.3614 158.23L73.9515 157.958C74.0247 157.845 75.4639 155.692 76.9531 154.245L76.905 154.235C76.9146 154.179 76.9108 154.062 76.8665 154.035 76.8569 154.029 76.6068 153.885 75.5716 154.583 73.7322 155.821 71.6831 158.141 71.9505 160.608L71.4599 160.662C71.1693 157.976 73.3435 155.488 75.2945 154.174 76.1969 153.566 76.7838 153.391 77.1378 153.623 77.2417 153.691 77.2994 153.787 77.3398 153.887 77.563 153.689 77.7862 153.514 78.0036 153.369 80.68 151.59 82.2693 150.662 82.9947 150.853L82.8965 151.228C83.3814 150.953 83.8509 150.762 84.2722 150.722 84.6647 150.687 84.9264 150.78 85.0515 151.003 85.1342 151.149 85.1323 151.316 85.0938 151.48 85.3863 151.372 85.6672 151.316 85.925 151.33L85.8981 151.822C85.8769 151.82 85.8577 151.82 85.8365 151.82 84.3242 151.82 81.5901 154.828 80.6511 156.003L80.2663 155.696C80.3779 155.555 82.4732 152.954 84.3723 151.838" fill="#100F0D" transform="matrix(1 0 0 1.00111 520.796 1601)"/><path d="M61.1603 93.0826C61.1603 93.0826 60.3811 92.2225 59.6846 92.1821 58.9881 92.1398 56.7927 95.6666 56.7927 95.6666L59.1805 93.5597 59.4268 96.7383 59.6846 96.9461C59.6846 96.9461 60.2291 93.7483 59.9328 93.0056ZM57.139 90.0291C56.5791 90.4177 56.1674 92.0205 56.1924 92.3283 56.2155 92.6381 59.7115 90.5639 60.1175 90.4908 60.5235 90.4177 60.231 88.84 60.231 88.84 59.6923 88.3243 57.697 89.6423 57.139 90.0291ZM60.2272 111.513C62.2128 109.308 61.9877 106.26 61.9781 106.132L61.4855 106.172C61.4894 106.201 61.7068 109.135 59.8616 111.182 58.7091 112.46 56.9986 113.133 54.7763 113.181L54.7859 113.674C57.1506 113.622 58.9804 112.895 60.2272 111.513ZM63.9887 97.4271 64.1657 97.0865 63.7828 97.0654C63.1691 97.0327 62.1185 96.1688 61.7664 95.8397L61.4297 96.1995C61.5548 96.3169 62.5457 97.2251 63.3961 97.4887 63.0248 98.1698 62.0704 99.8803 61.3508 100.74L61.7299 101.056C62.6707 99.9303 63.9348 97.5291 63.9887 97.4271ZM61.9396 99.4397 61.6202 99.0645 60.3811 100.119 60.7005 100.494ZM58.4359 105.772C58.0106 105.772 57.545 105.739 57.0371 105.658L57.1121 105.171C60.2406 105.664 61.5875 104.29 61.601 104.275L61.9608 104.613C61.9088 104.667 60.8448 105.772 58.4359 105.772" fill="#100F0D" transform="matrix(1 0 0 1.00111 520.796 1601)"/><path d="M64.641 188.262C54.9937 185.915 52.5213 167.176 52.5213 167.176L31.2988 188.965C31.2988 188.965 17.7688 188.597 13.911 184.237 13.911 184.237 1.00052 185.58 0.161622 171.829-0.675348 158.079 2.0068 129.07 2.0068 129.07 2.0068 129.07 13.4935 120.602 26.2366 119.848 27.3352 119.783 28.3434 119.725 29.2766 119.675L23.4274 129.909 29.3613 158.195C29.3613 158.195 41.6926 163.084 54.48 147.957L52.7599 120.958C60.1194 122.005 68.0447 123.323 68.5757 124.208 69.582 125.884 72.9356 162.272 72.9356 162.272 72.9356 162.272 76.1219 159.925 79.9777 162.272 83.8355 164.619 74.2883 190.61 64.641 188.262" fill="#CA721C" transform="matrix(1 0 0 1.00111 520.796 1601)"/><path d="M50.9532 91.6222 50.6511 91.2316C50.7088 91.1873 56.5137 86.6292 56.2386 82.8234 56.1674 81.8556 55.6998 81.009 54.8436 80.2933 55.0418 80.7685 55.19 81.3919 55.1207 82.1404 54.9495 83.9759 53.543 85.8115 50.9416 87.5932L50.6626 87.1872C53.1389 85.4902 54.4723 83.7778 54.6301 82.0942 54.7744 80.5588 53.847 79.6102 53.8393 79.6006L52.5617 78.3192 54.1336 79.2139C55.7518 80.1316 56.6253 81.3342 56.7292 82.7888 57.0236 86.8563 51.2014 91.4278 50.9532 91.6222ZM49.9392 75.2715C52.9176 75.8006 53.9913 77.2879 54.3472 78.0171 53.1928 76.8665 51.7093 75.9526 49.9392 75.2715ZM60.0348 85.5421C60.3792 84.8321 60.5312 84.1356 60.5369 83.4757 60.9141 84.0548 61.1315 84.6532 61.0949 85.2497 61.0141 86.5311 59.7269 87.6625 57.2757 88.6206 58.6571 87.6047 59.5441 86.56 60.0348 85.5421ZM58.3358 130.983C57.7624 125.401 56.3694 119.329 55.3189 113.428 54.9071 111.134 54.5531 108.87 54.3164 106.668 56.127 112.496 59.0208 123.298 58.3358 130.983ZM56.6138 89.4711C59.8597 88.3628 61.5586 86.9563 61.6644 85.2843 61.726 84.2857 61.2084 83.3044 60.4196 82.404 60.0348 80.7955 58.786 79.4967 57.3661 78.8695 56.531 78.4981 55.7499 78.2903 55.0283 78.1845 54.8282 77.5572 53.5353 74.4653 47.4437 74.5095 45.3079 74.0073 42.874 73.7707 40.1842 73.8053 34.4928 73.8804 30.4041 76.8049 27.5815 80.1413 24.3702 83.9452 22.5231 88.7342 22.2268 93.7021 20.8242 117.162-0.230888 135.058 14.7037 151.372 22.096 159.447 31.4777 160.673 39.6512 158.283 44.0785 152.45 43.5436 140.865 38.033 123.696 34.7641 113.514 39.2741 106.599 39.3202 106.53L39.7301 106.805C39.6858 106.872 35.3105 113.601 38.5025 123.546 43.6821 139.682 44.4729 150.964 40.9018 157.266 41.6522 156.409 42.3276 155.484 42.9163 154.481 48.602 144.805 45.7928 130.621 43.1857 120.793 39.9283 108.514 47.1589 95.2029 47.232 95.0701L47.6649 95.3087C47.5918 95.4395 40.4554 108.581 43.6629 120.666 46.2911 130.579 49.1195 144.896 43.3415 154.732 42.6797 155.857 41.9139 156.888 41.0558 157.833 41.1943 157.785 41.3309 157.735 41.4675 157.685 42.6989 156.417 43.8187 154.922 44.8154 153.192 49.8295 144.49 50.6165 131.693 48.4711 124.828 45.331 114.782 48.3595 109.064 48.4904 108.825L48.9213 109.06C48.8906 109.118 45.8698 114.851 48.9406 124.68 51.1167 131.647 50.3221 144.621 45.2425 153.437 44.4152 154.874 43.5051 156.152 42.52 157.277 50.426 154.045 56.7138 147.528 58.0953 141.04 58.5859 138.731 58.6821 136.189 58.5378 133.507 60.5446 124.514 55.8518 109.295 54.099 104.111 53.845 99.9803 54.1394 96.1476 55.4728 92.8978 55.9654 91.6953 56.3367 90.5582 56.6138 89.4711" fill="#100F0D" transform="matrix(1 0 0 1.00111 520.796 1601)"/><path d="M52.7599 167.119 50.3779 157.064C49.7198 139.291 68.5372 124.551 68.7258 124.403L68.4256 124.014C68.2332 124.162 49.2177 139.056 49.8911 157.131L52.2808 167.234ZM31.3123 188.718 29.0323 188.584C17.8553 188.218 14.1342 184.118 14.063 184.043 0.405978 173.43 2.23192 129.524 2.25308 129.082L1.76052 129.061C1.67779 130.875-0.0981276 173.663 13.7263 184.399 13.8783 184.576 17.5956 188.703 29.0092 189.076L31.2834 189.211ZM72.1756 174.282 71.685 174.24 72.6894 162.251 73.18 162.291 72.1756 174.282" fill="#100F0D" transform="matrix(1 0 0 1.00111 520.796 1601)"/><path d="M216.46 111.675 199.641 112.223 199.389 107.386C199.389 107.386 197.627 108.769 194.987 108.267 192.439 107.782 188.332 103.676 188.907 86.281 188.928 85.6422 188.41 85.2112 188.445 84.5358 188.509 83.3391 188.638 82.2404 188.82 81.2361 190.204 82.8311 192.228 83.9009 194.833 84.4916L195.449 86.8909C197.538 86.4907 199.218 90.1945 199.651 91.2393L199.759 91.5164 203.788 101.668C203.788 101.668 210.582 100.269 213.852 102.003L216.46 111.675" fill="#EBADB1" transform="matrix(1 0 0 1.00111 520.796 1601)"/><path d="M212.571 71.2809C212.423 70.7345 212.148 70.1477 211.63 69.6647 210.759 68.8528 209.414 68.4776 207.617 68.5468 210.124 69.2915 211.728 70.4978 212.571 71.2809ZM207.218 86.8236 207.153 86.3368C202.243 86.9871 195.354 84.3338 195.285 84.3069L195.106 84.7667C195.36 84.8649 200.726 86.9332 205.448 86.9332 206.052 86.9332 206.647 86.9005 207.218 86.8236ZM206.61 86.0828C206.805 86.0828 207.001 86.077 207.199 86.0655L207.186 85.8192 207.216 85.5748C203.262 85.0669 200.444 77.4091 200.415 77.3302L199.953 77.4995C200.057 77.7843 202.227 83.6796 205.604 85.5383 198.067 84.7725 194.038 75.6967 193.996 75.5985L193.544 75.7948C193.59 75.9006 198.117 86.0828 206.61 86.0828ZM213.852 102.003C210.582 100.269 203.788 101.668 203.788 101.668L199.759 91.5164 199.651 91.2393C199.218 90.1945 197.538 86.4907 195.449 86.8909L194.833 84.4916C192.228 83.9009 190.204 82.8311 188.82 81.2361 187.914 80.1874 187.277 78.9099 186.939 77.3937 185.932 72.9318 190.554 69.3511 200.016 68.0889 202.414 67.7695 204.444 67.8676 206.148 68.1928 208.823 67.8176 210.778 68.187 211.971 69.3049 212.827 70.1092 213.114 71.1289 213.187 71.9255 213.25 72.0044 213.285 72.0486 213.285 72.0486 213.285 72.0486 216.831 71.9851 220.581 76.1969 224.604 80.7281 213.852 102.003 213.852 102.003ZM188.776 85.6633 190.993 85.8192 188.461 84.2742C188.42 84.8302 188.776 85.6633 188.776 85.6633ZM205.97 102.661 206.052 103.145C206.112 103.134 212.023 102.156 214.118 104.036L214.447 103.671C212.177 101.631 206.222 102.616 205.97 102.661ZM204.192 102.641 204.097 102.158C204.43 102.093 212.242 100.606 214.239 102.734L213.881 103.07C212.069 101.139 204.271 102.626 204.192 102.641" fill="#CA721C" transform="matrix(1 0 0 1.00111 520.796 1601)"/><path d="M242.148 197.178C234.834 205.342 227.063 197.683 227.063 197.683 222.355 198.72 218.52 197.411 218.52 197.411L185.492 164.2 183.899 167.134C178.867 178.201 169.664 186.125 169.664 186.125 158.743 192.538 156.854 185.442 155.519 180.968 155.33 180.335 155.343 179.313 155.507 178.028L154.555 166.38 158.547 163.896 159.242 163.607C161.12 157.741 162.98 152.713 162.98 152.713L170.776 132.466 175.615 121.588 195.272 117.42 198.47 112.466C198.47 112.466 201.777 112.177 205.55 111.988 209.323 111.8 219.132 111.885 219.132 111.885L219.324 117.753 219.527 118.026 238.561 123.831 240.699 140.599 242.754 163.253 242.975 169.41C245.124 187.112 242.148 197.178 242.148 197.178" fill="#FFFFFF" transform="matrix(1 0 0 1.00111 520.796 1601)"/><g clip-path="url(#clip2)"><path d="M238.577 125.665C237.957 130.839 236.16 145.623 234.111 160.336 229.713 191.924 227.883 196.813 227.063 197.683 228.418 198.843 235.163 204.028 241.068 197.929 246.985 191.814 240.039 136.717 238.577 125.665ZM218.865 111.885 198.47 112.466 195.737 117.593C197.013 118.819 207.659 128.422 218.865 119.19ZM241.422 198.271C239.235 200.53 236.918 201.298 234.779 201.298 230.651 201.3 227.192 198.448 226.59 197.921 225.472 198.237 224.217 198.348 223.03 198.348 220.648 198.348 218.551 197.921 218.42 197.894L218.52 197.411C218.568 197.421 223.33 198.393 226.586 197.417 227.171 197.24 229.028 193.271 233.622 160.267 236.006 143.151 238.051 125.934 238.294 123.879L219.357 117.974 219.357 119.421 219.269 119.496C215.563 122.58 211.913 123.66 208.625 123.66 201.54 123.66 196.124 118.655 195.353 117.905L175.615 121.588C174.413 124.372 153.446 173.172 155.907 181.992 156.975 185.819 159.244 188.182 162.132 188.474 165.935 188.866 174.151 185.888 186.583 161.656 192.87 149.404 194.252 139.814 190.691 133.153 186.794 125.869 178.176 124.797 178.09 124.789L178.148 124.299C178.236 124.308 187.108 125.411 191.125 132.92 194.768 139.733 193.386 149.477 187.021 161.881 175.104 185.109 166.886 188.995 162.724 188.995 162.499 188.995 162.284 188.986 162.082 188.965 158.982 188.649 156.558 186.157 155.434 182.125 152.865 172.924 174.301 123.375 175.215 121.27L175.267 121.151 195.272 117.42 198.169 111.981 199.38 111.946 199.172 107.825C198.722 108.094 197.507 108.723 196.03 108.723 195.72 108.723 195.399 108.696 195.07 108.631 193.648 108.35 192.428 107.442 191.441 105.931L191.855 105.662C192.763 107.057 193.875 107.892 195.16 108.146 197.225 108.558 199.062 107.313 199.081 107.301L199.151 107.403 198.976 103.865 199.466 103.842 199.87 111.933 219.357 111.379 219.357 117.459 238.831 123.531 238.811 123.704C239.242 126.815 248.116 191.352 241.422 198.271ZM195.447 96.694C194.581 96.694 192.863 89.0208 192.59 87.1795 192.312 85.3189 192.48 84.8706 192.819 84.7667 193.817 84.4647 194.973 86.1905 195.36 86.8236L196.128 86.6716 196.224 87.1545 195.112 87.3738 195.023 87.2218C194.5 86.3175 193.525 85.1246 192.994 85.2304 192.464 86.1424 194.837 95.3029 195.518 96.1938 195.882 96.1264 196.584 95.5992 196.996 95.2183L197.33 95.58C197.13 95.7647 196.097 96.694 195.447 96.694" fill="#100F0D" transform="matrix(1 0 0 1.00111 520.796 1601)"/></g><path d="M155.141 180.064 154.299 166.247 159.143 163.299 159.399 163.721 154.809 166.513 155.634 180.035 155.141 180.064" fill="#100F0D" transform="matrix(1 0 0 1.00111 520.796 1601)"/><path d="M156 165.2C156 165.2 155.089 159.169 155.22 158.541 155.351 157.912 160.508 151.707 161.094 151.707 161.681 151.707 163.032 151.707 163.032 151.707 163.032 151.707 159.078 162.74 159.016 163.355L156 165.2" fill="#EBADB1" transform="matrix(1 0 0 1.00111 520.796 1601)"/><path d="M159.349 156.492 158.89 156.315 160.717 151.57 163.02 151.463 163.044 151.953 161.062 152.048 159.349 156.492" fill="#100F0D" transform="matrix(1 0 0 1.00111 520.796 1601)"/><path d="M164.258 94.4563 161.323 94.4563C159.469 94.4563 157.949 92.9363 157.949 91.0815 157.949 89.2248 159.469 87.7067 161.323 87.7067L164.258 87.7067C166.114 87.7067 167.632 89.2248 167.632 91.0815 167.632 92.9363 166.114 94.4563 164.258 94.4563ZM145.74 82.4983C145.74 82.4983 147.093 77.9613 150.949 77.8824 154.805 77.8035 154.453 77.2186 154.453 77.2186 154.453 77.2186 158.745 75.6236 160.675 77.8863 162.603 80.1509 162.016 80.7781 162.016 80.7781 162.016 80.7781 159.101 86.4387 154.333 86.8986 149.565 87.3604 147.239 84.049 145.74 82.4983ZM66.8575 20.9281 66.8575 95.8801 178.365 95.8801 178.365 20.9281 66.8575 20.9281" fill="#FFFFFF" transform="matrix(1 0 0 1.00111 520.796 1601)"/><path d="M178.119 95.6339 67.1038 95.6339 67.1038 21.6323 178.119 21.6323ZM122.527 10.4208 136.695 16.8106 108.356 16.8106ZM181.34 20.6433C181.34 18.5326 180.068 16.8106 178.511 16.8106L137.892 16.8106 122.857 10.0302 122.857-0.00192407 122.365-0.00192407 122.365 9.9532 107.159 16.8106 66.7094 16.8106C65.1528 16.8106 63.8829 18.5326 63.8829 20.6433L63.8829 21.6323 66.6112 21.6323 66.6112 96.1264 178.611 96.1264 178.611 21.6323 181.34 21.6323 181.34 20.6433" fill="#100F0D" transform="matrix(1 0 0 1.00111 520.796 1601)"/><path d="M131.019 46.2892 127.135 46.2892 127.135 48.575 131.019 48.575ZM119.758 50.5395 103.405 61.5625 103.405 41.8446C110.213 41.8446 116.212 45.2926 119.758 50.5395" fill="#EBADB1" transform="matrix(1 0 0 1.00111 520.796 1601)"/><path d="M131.019 42.9875 127.135 42.9875 127.135 45.2733 131.019 45.2733ZM121.886 68.4641C119.088 75.9507 111.867 81.2803 103.405 81.2803 92.513 81.2803 83.6873 72.4527 83.6873 61.5625 83.6873 50.6722 92.513 41.8446 103.405 41.8446L103.405 61.5625 121.886 68.4641" fill="#CA721C" transform="matrix(1 0 0 1.00111 520.796 1601)"/><path d="M131.019 49.589 127.135 49.589 127.135 51.8748 131.019 51.8748ZM123.127 61.5625 103.405 61.5625 119.758 50.5395C121.886 53.6873 123.127 57.4738 123.127 61.5625" fill="#100F0D" transform="matrix(1 0 0 1.00111 520.796 1601)"/><path d="M157.908 28.5051 86.9717 28.5051 86.9717 35.5471 157.908 35.5471ZM103.405 61.5625 121.886 68.4641C122.688 66.3168 123.127 63.9906 123.127 61.5625ZM131.019 55.061 127.135 55.061 127.135 52.7753 131.019 52.7753 131.019 55.061" fill="#BB4D81" transform="matrix(1 0 0 1.00111 520.796 1601)"/><path d="M121.035 90.8391 116.585 95.1894 114.145 90.993C112.377 91.2316 107.174 88.7476 107.174 87.8298 107.174 86.9121 110.542 87.3527 110.542 87.3527 107.684 86.1636 105.916 83.8162 106.426 83.443 106.936 83.0678 111.255 85.7557 111.255 85.7557 111.255 85.7557 106.018 81.2303 106.834 80.6781 107.65 80.124 112.208 83.8162 112.208 83.8162 112.208 83.8162 111.765 83.5777 110.574 82.048 109.385 80.5165 108.704 79.5313 109.624 79.4294 110.542 79.3274 115.202 83.7816 115.202 83.7816L115.508 83.4083C115.508 83.4083 114.215 81.6728 114.928 80.3125 115.642 78.9522 116.221 80.7551 117.445 83.3391 118.671 85.925 117.691 87.9376 117.691 87.9376L119.146 89.4172 121.035 90.8391" fill="#EBADB1" transform="matrix(1 0 0 1.00111 520.796 1601)"/><path d="M112.81 84.7302 113.151 84.3742 112.387 83.6469C109.468 80.5896 109.454 79.7642 109.454 79.7295L109.212 79.6968 108.973 79.6333C108.916 79.843 108.968 80.7801 112.038 83.9952ZM115.952 83.6354C115.785 83.5603 115.431 82.9119 115.217 82.3751L114.759 82.556C114.857 82.8023 115.152 83.5026 115.488 83.8759 115.034 84.3704 114.016 85.7191 114.613 87.3912L115.077 87.2257C114.451 85.4709 115.95 84.101 116.016 84.0433L116.298 83.7893ZM114.305 90.7756 115.057 92.0705 114.632 92.3187 113.988 91.2104 113.129 91.02 113.124 91.0315C112.137 90.6967 107.194 88.9766 106.828 87.9953 106.78 87.8626 106.79 87.7259 106.857 87.6124 107.171 87.0795 108.252 86.9602 109.206 86.9659 107.823 86.0616 106.133 84.3665 106.08 83.6527 106.066 83.4564 106.157 83.2929 106.324 83.2179 106.788 83.0081 108.152 83.6546 109.422 84.3665 108.718 83.6931 107.936 82.9292 107.388 82.3501 106.695 81.6189 106.412 81.111 106.497 80.7512 106.538 80.58 106.653 80.4818 106.749 80.4453L106.919 80.909C106.965 80.8917 106.974 80.8705 106.976 80.8628 106.976 80.8666 106.913 81.1322 107.746 82.0134 108.935 83.2679 111.242 85.4055 111.407 85.5594L111.771 85.7903 111.506 86.2059 111.123 85.9635C109.283 84.7937 107.09 83.6123 106.574 83.6585 106.682 84.2261 109.02 86.6235 110.397 87.0275 110.501 87.0371 110.584 87.0467 110.651 87.0544L110.767 87.0044C110.857 87.2084 111.273 88.2416 110.651 88.5494L110.432 88.1088C110.524 88.0646 110.503 87.8029 110.428 87.5258 109.2 87.4008 107.54 87.4239 107.282 87.8626 107.403 88.2935 110.401 89.5788 113.16 90.5216L114.305 90.7756" fill="#100F0D" transform="matrix(1 0 0 1.00111 520.796 1601)"/><path d="M173.526 119.306C173.249 116.385 171.398 111.38 171.398 111.38L166.201 113.657 166.197 113.647C166.197 113.647 166.153 113.67 166.062 113.714 165.999 113.745 165.91 113.784 165.807 113.828 165.655 113.903 165.458 113.991 165.216 114.09L165.216 114.095C161.97 115.444 151.045 119.054 138.362 112.887L136.016 108.864C136.016 108.864 123.019 115.823 115.473 93.6925L113.882 92.9344C113.882 92.9344 115.473 88.2397 117.99 87.4854L120.256 88.8265C120.256 88.8265 130.733 90.004 132.58 91.7626 132.58 91.7626 136.322 80.0297 146.4 81.0437L145.74 82.3482C145.74 82.3482 148.863 86.812 152.69 86.9486 156.513 87.0872 161.729 83.8355 162.172 79.9104 162.172 79.9104 171.604 80.3202 177.476 89.2056 182.806 97.2789 183.19 111.759 173.526 119.306" fill="#BB4D81" transform="matrix(1 0 0 1.00111 520.796 1601)"/><path d="M161.11 106.684 159.301 105.614 159.051 106.037 160.858 107.107ZM158.557 106.997 156.221 105.614 155.969 106.037 158.305 107.423ZM178.407 101.162 178.301 100.681C178.109 100.723 173.805 101.699 172.202 105.098 171.681 103.769 170.982 102.716 170.724 102.353 173.324 97.8023 176.248 90.208 176.279 90.131L175.819 89.9559C175.789 90.0329 172.818 97.7446 170.218 102.245L170.138 102.385 170.234 102.516C170.263 102.555 173.158 106.474 172.098 109.508 171.579 110.994 170.182 112.042 167.9 112.645 167.723 112.729 150.266 121.11 143.98 110.978L143.56 111.238C146.035 115.225 150.139 116.464 154.291 116.464 161.079 116.464 167.987 113.147 168.069 113.102 170.474 112.475 171.987 111.321 172.562 109.67 173.008 108.396 172.833 107.017 172.446 105.793 173.738 102.222 178.359 101.173 178.407 101.162ZM121.097 104.125C117.803 100.238 116.233 94.6487 115.996 93.7541 119.04 90.2619 120.087 88.9977 120.096 88.9843L119.717 88.6707C119.706 88.6841 118.644 89.9694 115.54 93.5289L115.456 93.6251 115.486 93.7483C115.502 93.8118 117.074 100.138 120.72 104.442 124.012 108.327 127.433 110.253 131.083 110.253 132.595 110.253 134.146 109.922 135.745 109.262L135.558 108.808C130.327 110.967 125.595 109.435 121.097 104.125ZM133.779 98.1929 134.269 98.2429C134.714 94.0407 132.849 91.703 132.768 91.6068L132.387 91.9185C132.405 91.9397 134.202 94.2043 133.779 98.1929ZM139.36 88.3243C139.287 88.4032 132.112 96.34 136.249 108.787L135.781 108.943C131.55 96.2092 138.923 88.0704 138.999 87.9895L139.36 88.3243" fill="#100F0D" transform="matrix(1 0 0 1.00111 520.796 1601)"/><path d="M154.453 84.2472C154.227 84.2472 154.047 84.0664 154.047 83.8413 154.047 83.6181 154.227 83.4353 154.453 83.4353 154.676 83.4353 154.859 83.6181 154.859 83.8413 154.859 84.0664 154.676 84.2472 154.453 84.2472ZM154.453 82.9427C153.956 82.9427 153.554 83.3468 153.554 83.8413 153.554 84.3377 153.956 84.7398 154.453 84.7398 154.947 84.7398 155.351 84.3377 155.351 83.8413 155.351 83.3468 154.947 82.9427 154.453 82.9427ZM150.247 86.0693C151.089 85.3151 152.573 83.164 153.837 81.2188 154.928 82.3693 156.933 84.4146 157.954 85.0553 156.935 85.7557 153.633 87.6836 150.247 86.0693ZM162.418 80.7897C162.412 80.7454 161.816 76.3739 157.756 76.6241L157.787 77.1166C161.098 76.9165 161.808 80.1413 161.914 80.757 160.527 82.6483 158.816 84.6975 158.437 84.7667 158.02 84.709 155.842 82.6291 153.979 80.6511L153.764 80.4222 153.593 80.6877C152.024 83.1178 150.16 85.7172 149.796 85.8577 149.437 85.7826 147.618 84.0394 146.025 82.3578 146.329 81.5997 147.961 77.9825 151.42 77.8382L151.399 77.3475C147.226 77.5188 145.525 82.2847 145.508 82.3328L145.46 82.4732 145.561 82.5829C146.572 83.6546 148.921 86.0847 149.664 86.3233 150.81 86.9544 151.953 87.1891 153.021 87.1891 155.905 87.1891 158.231 85.4786 158.549 85.2324 159.376 84.9688 161.475 82.1943 162.372 80.9667L162.43 80.8859 162.418 80.7897" fill="#100F0D" transform="matrix(1 0 0 1.00111 520.796 1601)"/><path d="M164.979 70.5479C164.725 71.179 164.236 71.6407 163.713 71.9467 163.034 72.3449 162.226 72.4488 161.493 72.1833 160.887 73.4186 160.05 74.498 159.049 75.3503L159.553 78.4308C155.184 82.125 149.66 79.6641 149.66 79.6641L150.454 77.0897C147.031 76.0469 144.961 72.8625 144.455 68.9567 144.39 68.4987 144.361 68.0293 144.361 67.5521 144.361 66.2264 144.603 64.9623 145.046 63.804 150.572 63.7636 153.7 61.5817 155.365 59.7115 155.68 59.3556 156.465 58.3204 156.681 58.0068 158.278 58.6013 160.163 59.7481 161.272 61.0237 162.436 62.3494 162.99 64.185 162.445 66.2995 162.782 66.1244 163.276 66.2591 163.692 66.4381 164.285 66.694 164.735 67.1807 164.964 67.783 165.225 68.4737 165.412 69.4781 164.979 70.5479" fill="#EBADB1" transform="matrix(1 0 0 1.00111 520.796 1601)"/><path d="M150.454 67.0922C150.454 67.0922 149.596 65.2778 147.774 65.6877 145.95 66.0956 146.169 67.2808 146.169 67.2808 146.169 67.2808 146.233 69.2299 148.465 69.0413 150.697 68.8528 150.454 67.0922 150.454 67.0922ZM154.333 66.9653C154.333 66.9653 156.64 63.602 159.03 66.2745 159.03 66.2745 159.018 68.9163 156.681 68.8528 154.345 68.7893 154.333 66.9653 154.333 66.9653" fill="#FFFFFF" transform="matrix(1 0 0 1.00111 520.796 1601)"/><path d="M152.405 72.647C152.405 72.647 152.867 72.039 153.664 72.0814 154.46 72.1218 155.297 72.7913 156.094 72.4989 156.094 72.4989 155.068 75.0579 152.573 74.9309 150.079 74.8058 149.283 73.003 149.283 73.003 149.283 73.003 150.104 72.6008 150.73 72.2276 151.463 71.787 152.405 72.647 152.405 72.647" fill="#BB4D81" transform="matrix(1 0 0 1.00111 520.796 1601)"/><path d="M150.454 73.1761C152.298 73.7572 154.826 73.0184 154.826 73.0184 152.771 74.6846 150.454 73.1761 150.454 73.1761" fill="#FFFFFF" transform="matrix(1 0 0 1.00111 520.796 1601)"/><path d="M155.499 76.676 155.172 76.3085C155.161 76.3181 153.881 77.3976 151.043 76.8415L150.949 77.3244C151.57 77.4476 152.123 77.4957 152.609 77.4957 154.551 77.4957 155.453 76.7184 155.499 76.676ZM164.023 68.1293 164.129 67.6483C163.369 67.479 161.795 67.5771 161.272 69.1433L161.739 69.2991C162.251 67.7637 163.952 68.1139 164.023 68.1293ZM153.837 70.6056 152.677 70.4324 152.604 70.9192 153.764 71.0924ZM150.539 70.0187C150.479 69.5146 151.23 69.0048 151.524 68.8508L151.297 68.4141C151.241 68.4429 149.937 69.1318 150.05 70.0765ZM156.615 72.3969C156.317 72.3565 155.963 72.0332 155.851 71.912L155.488 72.2449C155.542 72.3026 156.019 72.8125 156.548 72.8856ZM149.621 68.7142C149.898 67.2327 149.912 66.338 148.611 66.4207 147.312 66.5054 147.94 69.0452 147.94 69.0452 148.892 69.3453 149.621 68.7142 149.621 68.7142ZM158.099 68.4237C158.099 68.4237 158.845 66.4842 158.099 66.0225 157.352 65.5626 155.082 65.5184 155.976 68.7681 155.976 68.7681 157.337 69.126 158.099 68.4237ZM150.454 67.0922C150.454 67.0922 150.143 65.5203 148.842 65.3952 147.543 65.2682 146.348 65.8127 145.74 65.4991L146.193 67.4674C146.193 67.4674 146.914 65.7916 148.213 65.8339 149.514 65.8762 150.454 67.0922 150.454 67.0922ZM154.333 66.9653C154.333 66.9653 155.089 64.9123 157.121 64.9334 159.155 64.9546 159.678 64.7026 159.678 64.7026L159.03 66.2745C159.03 66.2745 157.289 64.7872 155.905 65.73 154.522 66.6728 154.333 66.9653 154.333 66.9653" fill="#100F0D" transform="matrix(1 0 0 1.00111 520.796 1601)"/><path d="M154.703 61.4028C153.708 62.4264 151.665 63.5481 147.524 63.6231 151.534 63.0652 153.968 61.2816 155.365 59.7115 155.544 59.5095 155.703 59.3113 155.851 59.1208 155.771 59.6827 155.511 60.5716 154.703 61.4028ZM164.575 58.0645C162.53 57.7413 161.004 56.8677 160.04 55.4555 158.78 53.6084 158.749 51.2706 158.926 49.6871 158.166 49.9045 157.456 50.2894 156.852 50.8281 156.825 51.0224 156.81 51.2148 156.808 51.413 156.771 54.2933 159.317 56.6696 159.344 56.6927L159.009 57.0563C158.897 56.9524 156.277 54.505 156.315 51.4072 156.315 51.3995 156.317 51.3918 156.317 51.3861 156.169 51.5631 156.028 51.7478 155.901 51.9479L154.932 53.4949C154.578 54.0605 154.345 54.6666 154.227 55.2881 149.596 55.4843 145.621 59.0554 144.992 63.804L144.936 64.1061C145.673 64.158 146.468 64.1273 147.135 64.1273 150.866 64.1273 153.529 63.3249 155.066 61.7356 156.19 60.5735 156.361 59.3325 156.377 58.7822 157.887 59.3825 159.263 60.3061 160.319 61.524 161.483 62.8477 162.276 64.5236 162.468 66.5035 162.911 66.5073 162.857 66.4592 163.398 66.6016 163.615 66.6555 164.019 66.8229 164.183 66.9653L164.186 66.9325 164.271 66.3111C164.329 65.8782 164.354 65.4491 164.354 65.0258 164.354 63.2864 163.881 61.6163 163.044 60.1733 163.369 59.8731 163.659 59.523 163.906 59.1305ZM165.68 54.7801C165.68 55.3535 165.576 55.9269 165.387 56.4829 164.11 55.9461 163.196 55.1188 162.674 54.0067 162.045 52.6617 162.07 51.1071 162.278 49.818 162.597 49.9392 162.907 50.0912 163.207 50.2778 164.802 51.2822 165.68 53.0119 165.68 54.7801ZM162.228 54.2145C161.529 52.7233 161.564 51.0359 161.795 49.6602 161.019 49.4505 160.215 49.4255 159.442 49.5659 159.257 51.0744 159.24 53.4083 160.448 55.1784 161.364 56.5195 162.851 57.3314 164.862 57.6066L164.875 57.5835C165.006 57.3757 165.118 57.1621 165.214 56.9447 163.813 56.3598 162.807 55.4478 162.228 54.2145ZM153.927 64.1292 153.19 63.475C153.964 62.6034 156.098 61.2758 158.643 62.4976L158.218 63.3865C155.717 62.1859 153.999 64.0503 153.927 64.1292" fill="#CA721C" transform="matrix(1 0 0 1.00111 520.796 1601)"/><path d="M153.448 80.655C152.257 80.655 150.951 80.4472 149.567 79.8931L149.752 79.4351C155.138 81.5959 159.357 78.273 159.399 78.2403L159.707 78.6232C159.675 78.6501 157.129 80.655 153.448 80.655" fill="#100F0D" transform="matrix(1 0 0 1.00111 520.796 1601)"/></g></svg>