<svg width="602" height="406" xmlns="http://www.w3.org/2000/svg" xmlns:xlink="http://www.w3.org/1999/xlink" overflow="hidden"><defs><clipPath id="clip0"><rect x="96" y="116" width="602" height="406"/></clipPath><clipPath id="clip1"><rect x="139" y="151" width="504" height="318"/></clipPath><clipPath id="clip2"><rect x="139" y="151" width="504" height="318"/></clipPath><clipPath id="clip3"><rect x="139" y="151" width="504" height="318"/></clipPath><clipPath id="clip4"><rect x="139" y="151" width="504" height="318"/></clipPath><clipPath id="clip5"><rect x="139" y="151" width="504" height="318"/></clipPath><clipPath id="clip6"><rect x="139" y="151" width="504" height="318"/></clipPath></defs><g clip-path="url(#clip0)" transform="translate(-96 -116)"><path d="M44.4212 1697.08 644.346 1697.08 644.346 2102.12 44.4212 2102.12Z" fill="#FFFFFF" fill-rule="nonzero" fill-opacity="1" transform="matrix(1.00186 0 0 1 51.9746 -1580.6)"/><path d="M87.4094 1732.43 588.939 1732.43 588.939 2049.11 87.4094 2049.11Z" fill="#FFFFFF" fill-rule="nonzero" fill-opacity="1" transform="matrix(1.00186 0 0 1 51.9746 -1580.6)"/><g clip-path="url(#clip1)"><path d="M160.489 1971.73 202.522 1971.73 202.522 2049.11 160.489 2049.11ZM223.539 2041.94 265.094 2041.94 265.094 2049.11 223.539 2049.11ZM286.111 2035.25 327.666 2035.25 327.666 2049.11 286.111 2049.11ZM348.682 2013.76 390.715 2013.76 390.715 2049.11 348.682 2049.11ZM411.254 2041.94 453.287 2041.94 453.287 2049.11 411.254 2049.11ZM474.304 2020.92 515.859 2020.92 515.859 2049.11 474.304 2049.11ZM536.875 2035.25 578.908 2035.25 578.908 2049.11 536.875 2049.11Z" fill="#003F5C" fill-rule="nonzero" fill-opacity="1" transform="matrix(1.00186 0 0 1 51.9746 -1580.6)"/></g><g clip-path="url(#clip2)"><path d="M97.9176 2041.94 139.473 2041.94 139.473 2049.11 97.9176 2049.11ZM160.489 1957.88 202.522 1957.88 202.522 1971.73 160.489 1971.73ZM223.539 2035.25 265.094 2035.25 265.094 2041.94 223.539 2041.94ZM286.111 1986.06 327.666 1986.06 327.666 2035.25 286.111 2035.25ZM348.682 1999.91 390.715 1999.91 390.715 2013.76 348.682 2013.76ZM474.304 2013.76 515.859 2013.76 515.859 2020.92 474.304 2020.92ZM536.875 2028.09 578.908 2028.09 578.908 2035.25 536.875 2035.25Z" fill="#444D85" fill-rule="nonzero" fill-opacity="1" transform="matrix(1.00186 0 0 1 51.9746 -1580.6)"/></g><g clip-path="url(#clip3)"><path d="M97.9176 2035.25 139.473 2035.25 139.473 2041.94 97.9176 2041.94ZM160.489 1950.71 202.522 1950.71 202.522 1957.88 160.489 1957.88ZM223.539 2028.09 265.094 2028.09 265.094 2035.25 223.539 2035.25ZM286.111 1922.53 327.666 1922.53 327.666 1986.06 286.111 1986.06ZM348.682 1986.06 390.715 1986.06 390.715 1999.91 348.682 1999.91ZM411.254 2028.09 453.287 2028.09 453.287 2041.94 411.254 2041.94Z" fill="#955096" fill-rule="nonzero" fill-opacity="1" transform="matrix(1.00186 0 0 1 51.9746 -1580.6)"/></g><g clip-path="url(#clip4)"><path d="M97.9176 2013.76 139.473 2013.76 139.473 2035.25 97.9176 2035.25ZM223.539 2020.92 265.094 2020.92 265.094 2028.09 223.539 2028.09ZM286.111 1824.13 327.666 1824.13 327.666 1922.53 286.111 1922.53ZM348.682 1964.56 390.715 1964.56 390.715 1986.06 348.682 1986.06ZM411.254 2020.92 453.287 2020.92 453.287 2028.09 411.254 2028.09ZM474.304 1986.06 515.859 1986.06 515.859 2013.76 474.304 2013.76ZM536.875 2007.07 578.908 2007.07 578.908 2028.09 536.875 2028.09Z" fill="#DD5081" fill-rule="nonzero" fill-opacity="1" transform="matrix(1.00186 0 0 1 51.9746 -1580.6)"/></g><g clip-path="url(#clip5)"><path d="M97.9176 2007.07 139.473 2007.07 139.473 2013.76 97.9176 2013.76ZM223.539 2007.07 265.094 2007.07 265.094 2020.92 223.539 2020.92ZM286.111 1760.61 327.666 1760.61 327.666 1824.13 286.111 1824.13ZM411.254 2013.76 453.287 2013.76 453.287 2020.92 411.254 2020.92ZM474.304 1978.89 515.859 1978.89 515.859 1986.06 474.304 1986.06ZM536.875 1999.91 578.908 1999.91 578.908 2007.07 536.875 2007.07Z" fill="#FF6E53" fill-rule="nonzero" fill-opacity="1" transform="matrix(1.00186 0 0 1 51.9746 -1580.6)"/></g><g clip-path="url(#clip6)"><path d="M97.9176 1999.91 139.473 1999.91 139.473 2007.07 97.9176 2007.07ZM223.539 1992.74 265.094 1992.74 265.094 2007.07 223.539 2007.07ZM286.111 1753.92 327.666 1753.92 327.666 1760.61 286.111 1760.61ZM348.682 1957.88 390.715 1957.88 390.715 1964.56 348.682 1964.56ZM474.304 1964.56 515.859 1964.56 515.859 1978.89 474.304 1978.89Z" fill="#FEA501" fill-rule="nonzero" fill-opacity="1" transform="matrix(1.00186 0 0 1 51.9746 -1580.6)"/></g><path d="M0 0 7.52199e-05 316.68" stroke="#000000" stroke-width="0.716471" stroke-linecap="butt" stroke-linejoin="round" stroke-miterlimit="10" stroke-opacity="1" fill="none" fill-rule="evenodd" transform="matrix(1.00186 0 0 -1 139.547 468.504)"/><path d="M84.5435 2049.11 87.4094 2049.11M84.5435 2013.76 87.4094 2013.76M84.5435 1978.89 87.4094 1978.89M84.5435 1943.55 87.4094 1943.55M84.5435 1908.68 87.4094 1908.68M84.5435 1873.33 87.4094 1873.33M84.5435 1837.99 87.4094 1837.99M84.5435 1803.12 87.4094 1803.12M84.5435 1767.77 87.4094 1767.77M84.5435 1732.43 87.4094 1732.43" stroke="#000000" stroke-width="0.716471" stroke-linecap="butt" stroke-linejoin="round" stroke-miterlimit="10" stroke-opacity="1" fill="none" fill-rule="nonzero" transform="matrix(1.00186 0 0 1 51.9746 -1580.6)"/><path d="M87.4094 2049.11 588.939 2049.11" stroke="#000000" stroke-width="0.716471" stroke-linecap="butt" stroke-linejoin="round" stroke-miterlimit="10" stroke-opacity="1" fill="none" fill-rule="evenodd" transform="matrix(1.00186 0 0 1 51.9746 -1580.6)"/><path d="M87.4094 2049.11 87.4094 2051.97M149.981 2049.11 149.981 2051.97M213.031 2049.11 213.031 2051.97M275.602 2049.11 275.602 2051.97M338.174 2049.11 338.174 2051.97M401.224 2049.11 401.224 2051.97M463.795 2049.11 463.795 2051.97M526.367 2049.11 526.367 2051.97M588.939 2049.11 588.939 2051.97" stroke="#000000" stroke-width="0.716471" stroke-linecap="butt" stroke-linejoin="round" stroke-miterlimit="10" stroke-opacity="1" fill="none" fill-rule="nonzero" transform="matrix(1.00186 0 0 1 51.9746 -1580.6)"/><text fill="#000000" fill-opacity="1" font-family="Calibri,Calibri_MSFontService,sans-serif" font-style="normal" font-variant="normal" font-weight="400" font-stretch="normal" font-size="18" text-anchor="start" direction="ltr" writing-mode="lr-tb" unicode-bidi="normal" text-decoration="none" transform="matrix(0.478537 0 0 0.477647 127.207 471)">0<tspan fill="#000000" fill-opacity="1" font-family="Calibri,Calibri_MSFontService,sans-serif" font-style="normal" font-variant="normal" font-weight="400" font-stretch="normal" font-size="18" text-anchor="start" direction="ltr" writing-mode="lr-tb" unicode-bidi="normal" text-decoration="none" x="0" y="-73.2759">5</tspan><tspan fill="#000000" fill-opacity="1" font-family="Calibri,Calibri_MSFontService,sans-serif" font-style="normal" font-variant="normal" font-weight="400" font-stretch="normal" font-size="18" text-anchor="start" direction="ltr" writing-mode="lr-tb" unicode-bidi="normal" text-decoration="none" x="-9.11999" y="-146.552">10</tspan><tspan fill="#000000" fill-opacity="1" font-family="Calibri,Calibri_MSFontService,sans-serif" font-style="normal" font-variant="normal" font-weight="400" font-stretch="normal" font-size="18" text-anchor="start" direction="ltr" writing-mode="lr-tb" unicode-bidi="normal" text-decoration="none" x="-9.11999" y="-219.828">15</tspan><tspan fill="#000000" fill-opacity="1" font-family="Calibri,Calibri_MSFontService,sans-serif" font-style="normal" font-variant="normal" font-weight="400" font-stretch="normal" font-size="18" text-anchor="start" direction="ltr" writing-mode="lr-tb" unicode-bidi="normal" text-decoration="none" x="-9.11999" y="-295.197">20</tspan><tspan fill="#000000" fill-opacity="1" font-family="Calibri,Calibri_MSFontService,sans-serif" font-style="normal" font-variant="normal" font-weight="400" font-stretch="normal" font-size="18" text-anchor="start" direction="ltr" writing-mode="lr-tb" unicode-bidi="normal" text-decoration="none" x="-9.11999" y="-368.473">25</tspan><tspan fill="#000000" fill-opacity="1" font-family="Calibri,Calibri_MSFontService,sans-serif" font-style="normal" font-variant="normal" font-weight="400" font-stretch="normal" font-size="18" text-anchor="start" direction="ltr" writing-mode="lr-tb" unicode-bidi="normal" text-decoration="none" x="-9.11999" y="-441.749">30</tspan><tspan fill="#000000" fill-opacity="1" font-family="Calibri,Calibri_MSFontService,sans-serif" font-style="normal" font-variant="normal" font-weight="400" font-stretch="normal" font-size="18" text-anchor="start" direction="ltr" writing-mode="lr-tb" unicode-bidi="normal" text-decoration="none" x="-9.11999" y="-515.025">35</tspan><tspan fill="#000000" fill-opacity="1" font-family="Calibri,Calibri_MSFontService,sans-serif" font-style="normal" font-variant="normal" font-weight="400" font-stretch="normal" font-size="18" text-anchor="start" direction="ltr" writing-mode="lr-tb" unicode-bidi="normal" text-decoration="none" x="-9.11999" y="-588.3">40</tspan><tspan fill="#000000" fill-opacity="1" font-family="Calibri,Calibri_MSFontService,sans-serif" font-style="normal" font-variant="normal" font-weight="400" font-stretch="normal" font-size="18" text-anchor="start" direction="ltr" writing-mode="lr-tb" unicode-bidi="normal" text-decoration="none" x="-9.11999" y="-661.576">45</tspan><tspan fill="#000000" fill-opacity="1" font-family="Calibri,Calibri_MSFontService,sans-serif" font-style="normal" font-variant="normal" font-weight="400" font-stretch="normal" font-size="18" text-anchor="start" direction="ltr" writing-mode="lr-tb" unicode-bidi="normal" text-decoration="none" x="59.826" y="25.1232">Personal</tspan><tspan fill="#000000" fill-opacity="1" font-family="Calibri,Calibri_MSFontService,sans-serif" font-style="normal" font-variant="normal" font-weight="400" font-stretch="normal" font-size="18" text-anchor="start" direction="ltr" writing-mode="lr-tb" unicode-bidi="normal" text-decoration="none" x="39.351" y="46.0591">circumstances</tspan><tspan fill="#000000" fill-opacity="1" font-family="Calibri,Calibri_MSFontService,sans-serif" font-style="normal" font-variant="normal" font-weight="400" font-stretch="normal" font-size="18" text-anchor="start" direction="ltr" writing-mode="lr-tb" unicode-bidi="normal" text-decoration="none" x="161.652" y="25.1232">University / High</tspan><tspan fill="#000000" fill-opacity="1" font-family="Calibri,Calibri_MSFontService,sans-serif" font-style="normal" font-variant="normal" font-weight="400" font-stretch="normal" font-size="18" text-anchor="start" direction="ltr" writing-mode="lr-tb" unicode-bidi="normal" text-decoration="none" x="159.977" y="46.0591">School Education</tspan><tspan fill="#000000" fill-opacity="1" font-family="Calibri,Calibri_MSFontService,sans-serif" font-style="normal" font-variant="normal" font-weight="400" font-stretch="normal" font-size="18" text-anchor="start" direction="ltr" writing-mode="lr-tb" unicode-bidi="normal" text-decoration="none" x="305.378" y="25.1232">News articles</tspan><tspan fill="#000000" fill-opacity="1" font-family="Calibri,Calibri_MSFontService,sans-serif" font-style="normal" font-variant="normal" font-weight="400" font-stretch="normal" font-size="18" text-anchor="start" direction="ltr" writing-mode="lr-tb" unicode-bidi="normal" text-decoration="none" x="459.918" y="25.1232">My job</tspan><tspan fill="#000000" fill-opacity="1" font-family="Calibri,Calibri_MSFontService,sans-serif" font-style="normal" font-variant="normal" font-weight="400" font-stretch="normal" font-size="18" text-anchor="start" direction="ltr" writing-mode="lr-tb" unicode-bidi="normal" text-decoration="none" x="583.739" y="25.1232">Scientific</tspan><tspan fill="#000000" fill-opacity="1" font-family="Calibri,Calibri_MSFontService,sans-serif" font-style="normal" font-variant="normal" font-weight="400" font-stretch="normal" font-size="18" text-anchor="start" direction="ltr" writing-mode="lr-tb" unicode-bidi="normal" text-decoration="none" x="582.209" y="46.0591">literature</tspan><tspan fill="#000000" fill-opacity="1" font-family="Calibri,Calibri_MSFontService,sans-serif" font-style="normal" font-variant="normal" font-weight="400" font-stretch="normal" font-size="18" text-anchor="start" direction="ltr" writing-mode="lr-tb" unicode-bidi="normal" text-decoration="none" x="694.8" y="25.1232">NHS resources</tspan><tspan fill="#000000" fill-opacity="1" font-family="Calibri,Calibri_MSFontService,sans-serif" font-style="normal" font-variant="normal" font-weight="400" font-stretch="normal" font-size="18" text-anchor="start" direction="ltr" writing-mode="lr-tb" unicode-bidi="normal" text-decoration="none" x="827.376" y="25.1232">Conversations</tspan><tspan fill="#000000" fill-opacity="1" font-family="Calibri,Calibri_MSFontService,sans-serif" font-style="normal" font-variant="normal" font-weight="400" font-stretch="normal" font-size="18" text-anchor="start" direction="ltr" writing-mode="lr-tb" unicode-bidi="normal" text-decoration="none" x="837.331" y="46.0591">with others</tspan><tspan fill="#000000" fill-opacity="1" font-family="Calibri,Calibri_MSFontService,sans-serif" font-style="normal" font-variant="normal" font-weight="400" font-stretch="normal" font-size="18" text-anchor="start" direction="ltr" writing-mode="lr-tb" unicode-bidi="normal" text-decoration="none" x="964.597" y="25.1232">Social media</tspan></text><text fill="#000000" fill-opacity="1" font-family="Calibri,Calibri_MSFontService,sans-serif" font-style="normal" font-variant="normal" font-weight="400" font-stretch="normal" font-size="20" text-anchor="start" direction="ltr" writing-mode="lr-tb" unicode-bidi="normal" text-decoration="none" transform="matrix(2.93019e-17 -0.477647 0.478537 2.92474e-17 117.861 355)">Number of participants</text><text fill="#000000" fill-opacity="1" font-family="Calibri,Calibri_MSFontService,sans-serif" font-style="normal" font-variant="normal" font-weight="400" font-stretch="normal" font-size="20" text-anchor="start" direction="ltr" writing-mode="lr-tb" unicode-bidi="normal" text-decoration="none" transform="matrix(0.478537 0 0 0.477647 333.287 507)">Method of hearing about CRE<tspan fill="#000000" fill-opacity="1" font-family="Calibri,Calibri_MSFontService,sans-serif" font-style="normal" font-variant="normal" font-weight="400" font-stretch="normal" font-size="28" text-anchor="start" direction="ltr" writing-mode="lr-tb" unicode-bidi="normal" text-decoration="none" x="-266.087" y="-776.724">How participants heard about CRE for the first time based on their age</tspan></text><path d="M519.202 1762.04 523.501 1762.04 523.501 1766.82 519.202 1766.82Z" fill="#FEA501" fill-rule="nonzero" fill-opacity="1" transform="matrix(1.00186 0 0 1 51.9746 -1580.6)"/><text fill="#000000" fill-opacity="1" font-family="Calibri,Calibri_MSFontService,sans-serif" font-style="normal" font-variant="normal" font-weight="400" font-stretch="normal" font-size="18" text-anchor="start" direction="ltr" writing-mode="lr-tb" unicode-bidi="normal" text-decoration="none" transform="matrix(0.478537 0 0 0.477647 578.667 186)">&gt;64</text><path d="M519.202 1778.28 523.501 1778.28 523.501 1783.06 519.202 1783.06Z" fill="#FF6E53" fill-rule="nonzero" fill-opacity="1" transform="matrix(1.00186 0 0 1 51.9746 -1580.6)"/><text fill="#000000" fill-opacity="1" font-family="Calibri,Calibri_MSFontService,sans-serif" font-style="normal" font-variant="normal" font-weight="400" font-stretch="normal" font-size="18" text-anchor="start" direction="ltr" writing-mode="lr-tb" unicode-bidi="normal" text-decoration="none" transform="matrix(0.478537 0 0 0.477647 578.667 202)">55 - 64</text><path d="M519.202 1794.52 523.501 1794.52 523.501 1799.3 519.202 1799.3Z" fill="#DD5081" fill-rule="nonzero" fill-opacity="1" transform="matrix(1.00186 0 0 1 51.9746 -1580.6)"/><text fill="#000000" fill-opacity="1" font-family="Calibri,Calibri_MSFontService,sans-serif" font-style="normal" font-variant="normal" font-weight="400" font-stretch="normal" font-size="18" text-anchor="start" direction="ltr" writing-mode="lr-tb" unicode-bidi="normal" text-decoration="none" transform="matrix(0.478537 0 0 0.477647 578.667 219)">45 - 54</text><path d="M519.202 1810.28 523.501 1810.28 523.501 1815.06 519.202 1815.06Z" fill="#955096" fill-rule="nonzero" fill-opacity="1" transform="matrix(1.00186 0 0 1 51.9746 -1580.6)"/><text fill="#000000" fill-opacity="1" font-family="Calibri,Calibri_MSFontService,sans-serif" font-style="normal" font-variant="normal" font-weight="400" font-stretch="normal" font-size="18" text-anchor="start" direction="ltr" writing-mode="lr-tb" unicode-bidi="normal" text-decoration="none" transform="matrix(0.478537 0 0 0.477647 578.667 235)">35 - 44</text><path d="M519.202 1826.52 523.501 1826.52 523.501 1831.3 519.202 1831.3Z" fill="#444D85" fill-rule="nonzero" fill-opacity="1" transform="matrix(1.00186 0 0 1 51.9746 -1580.6)"/><text fill="#000000" fill-opacity="1" font-family="Calibri,Calibri_MSFontService,sans-serif" font-style="normal" font-variant="normal" font-weight="400" font-stretch="normal" font-size="18" text-anchor="start" direction="ltr" writing-mode="lr-tb" unicode-bidi="normal" text-decoration="none" transform="matrix(0.478537 0 0 0.477647 578.667 251)">25 - 34</text><path d="M519.202 1842.76 523.501 1842.76 523.501 1847.54 519.202 1847.54Z" fill="#003F5C" fill-rule="nonzero" fill-opacity="1" transform="matrix(1.00186 0 0 1 51.9746 -1580.6)"/><text fill="#000000" fill-opacity="1" font-family="Calibri,Calibri_MSFontService,sans-serif" font-style="normal" font-variant="normal" font-weight="400" font-stretch="normal" font-size="18" text-anchor="start" direction="ltr" writing-mode="lr-tb" unicode-bidi="normal" text-decoration="none" transform="matrix(0.478537 0 0 0.477647 578.667 267)">18 - 24</text></g></svg>