<svg width="261" height="258" xmlns="http://www.w3.org/2000/svg" xmlns:xlink="http://www.w3.org/1999/xlink" overflow="hidden"><defs><clipPath id="clip0"><rect x="364" y="96" width="261" height="258"/></clipPath><clipPath id="clip1"><rect x="364" y="96" width="260" height="257"/></clipPath><clipPath id="clip2"><rect x="364" y="96" width="260" height="257"/></clipPath><clipPath id="clip3"><rect x="364" y="96" width="260" height="257"/></clipPath><clipPath id="clip4"><rect x="364" y="96" width="260" height="257"/></clipPath><clipPath id="clip5"><rect x="364" y="96" width="260" height="257"/></clipPath><clipPath id="clip6"><rect x="364" y="96" width="260" height="257"/></clipPath><clipPath id="clip7"><rect x="364" y="96" width="260" height="257"/></clipPath></defs><g clip-path="url(#clip0)" transform="translate(-364 -96)"><path d="M554.869 447.275 814.559 447.275 814.559 703.585 554.869 703.585Z" fill="#FFFFFF" fill-rule="nonzero" fill-opacity="1" transform="matrix(1.00287 0 0 1 -191.896 -350.148)"/><g clip-path="url(#clip1)"><path d="M684.579 503.069C711.241 503.069 736.432 515.312 752.909 536.28L684.579 589.975Z" fill="#FEA501" fill-rule="evenodd" fill-opacity="1" transform="matrix(1.00287 0 0 1 -191.896 -350.148)"/></g><g clip-path="url(#clip2)"><path d="M752.909 536.28C782.568 574.022 776.011 628.652 738.274 658.311 700.532 687.964 645.896 681.413 616.243 643.671 586.59 605.934 593.141 551.298 630.878 521.642 646.194 509.61 665.105 503.069 684.579 503.069L684.579 589.975Z" fill="#003F5C" fill-rule="evenodd" fill-opacity="1" transform="matrix(1.00287 0 0 1 -191.896 -350.148)"/></g><g clip-path="url(#clip3)"><text fill="#000000" fill-opacity="1" font-family="Calibri,Calibri_MSFontService,sans-serif" font-style="normal" font-variant="normal" font-weight="400" font-stretch="normal" font-size="22" text-anchor="start" direction="ltr" writing-mode="lr-tb" unicode-bidi="normal" text-decoration="none" transform="matrix(0.564935 0 0 0.563319 540.429 139)">Yes</text></g><g clip-path="url(#clip4)"><text fill="#000000" fill-opacity="1" font-family="Calibri,Calibri_MSFontService,sans-serif" font-style="normal" font-variant="normal" font-weight="400" font-stretch="normal" font-size="22" text-anchor="start" direction="ltr" writing-mode="lr-tb" unicode-bidi="normal" text-decoration="none" transform="matrix(0.564935 0 0 0.563319 538.339 154)">14%</text></g><g clip-path="url(#clip5)"><text fill="#000000" fill-opacity="1" font-family="Calibri,Calibri_MSFontService,sans-serif" font-style="normal" font-variant="normal" font-weight="400" font-stretch="normal" font-size="22" text-anchor="start" direction="ltr" writing-mode="lr-tb" unicode-bidi="normal" text-decoration="none" transform="matrix(0.564935 0 0 0.563319 433.741 334)">No</text></g><g clip-path="url(#clip6)"><text fill="#000000" fill-opacity="1" font-family="Calibri,Calibri_MSFontService,sans-serif" font-style="normal" font-variant="normal" font-weight="400" font-stretch="normal" font-size="22" text-anchor="start" direction="ltr" writing-mode="lr-tb" unicode-bidi="normal" text-decoration="none" transform="matrix(0.564935 0 0 0.563319 430.448 349)">86%</text></g><g clip-path="url(#clip7)"><text fill="#000000" fill-opacity="1" font-family="Calibri,Calibri_MSFontService,sans-serif" font-style="normal" font-variant="normal" font-weight="400" font-stretch="normal" font-size="28" text-anchor="start" direction="ltr" writing-mode="lr-tb" unicode-bidi="normal" text-decoration="none" transform="matrix(0.564935 0 0 0.563319 418.132 113)">Public awareness of CRE</text></g></g></svg>