<svg width="240" height="258" xmlns="http://www.w3.org/2000/svg" xmlns:xlink="http://www.w3.org/1999/xlink" overflow="hidden"><defs><clipPath id="clip0"><rect x="125" y="96" width="240" height="258"/></clipPath><clipPath id="clip1"><rect x="126" y="96" width="239" height="258"/></clipPath><clipPath id="clip2"><rect x="126" y="96" width="239" height="258"/></clipPath><clipPath id="clip3"><rect x="126" y="96" width="239" height="258"/></clipPath><clipPath id="clip4"><rect x="126" y="96" width="239" height="258"/></clipPath><clipPath id="clip5"><rect x="126" y="96" width="239" height="258"/></clipPath><clipPath id="clip6"><rect x="126" y="96" width="239" height="258"/></clipPath><clipPath id="clip7"><rect x="126" y="96" width="239" height="258"/></clipPath><clipPath id="clip8"><rect x="126" y="96" width="239" height="258"/></clipPath><clipPath id="clip9"><rect x="126" y="96" width="239" height="258"/></clipPath><clipPath id="clip10"><rect x="126" y="96" width="239" height="258"/></clipPath><clipPath id="clip11"><rect x="126" y="96" width="239" height="258"/></clipPath><clipPath id="clip12"><rect x="126" y="96" width="239" height="258"/></clipPath></defs><g clip-path="url(#clip0)" transform="translate(-125 -96)"><g clip-path="url(#clip1)"><g clip-path="url(#clip2)"><g clip-path="url(#clip3)"><g clip-path="url(#clip4)"><path d="M469.571 93.2199 707.579 93.2199 707.579 350.566 469.571 350.566Z" fill="#FFFFFF" fill-rule="nonzero" fill-opacity="1" transform="matrix(1 0 0 1.00061 -343.075 2.72308)"/><g clip-path="url(#clip5)"><path d="M629.899 171.645C669.567 194.548 683.158 245.272 660.255 284.94 637.352 324.608 586.631 338.199 546.963 315.297 507.295 292.394 493.702 241.671 516.602 202.003 530.798 177.413 556.587 161.796 584.955 160.607L588.431 243.471Z" fill="#003F5C" fill-rule="evenodd" fill-opacity="1" transform="matrix(1 0 0 1.00061 -343.075 2.72308)"/></g><g clip-path="url(#clip6)"><path d="M584.955 160.607C600.678 159.948 616.268 163.776 629.899 171.646L588.431 243.471Z" fill="#FEA501" fill-rule="evenodd" fill-opacity="1" transform="matrix(1 0 0 1.00061 -343.075 2.72308)"/></g><g clip-path="url(#clip7)"><text fill="#000000" fill-opacity="1" font-family="Calibri,Calibri_MSFontService,sans-serif" font-style="normal" font-variant="normal" font-weight="400" font-stretch="normal" font-size="22" text-anchor="start" direction="ltr" writing-mode="lr-tb" unicode-bidi="normal" text-decoration="none" transform="matrix(0.495851 0 0 0.496154 208.405 337)">Yes</text></g><g clip-path="url(#clip8)"><text fill="#000000" fill-opacity="1" font-family="Calibri,Calibri_MSFontService,sans-serif" font-style="normal" font-variant="normal" font-weight="400" font-stretch="normal" font-size="22" text-anchor="start" direction="ltr" writing-mode="lr-tb" unicode-bidi="normal" text-decoration="none" transform="matrix(0.495851 0 0 0.496154 206.571 350)">91%</text></g><g clip-path="url(#clip9)"><text fill="#000000" fill-opacity="1" font-family="Calibri,Calibri_MSFontService,sans-serif" font-style="normal" font-variant="normal" font-weight="400" font-stretch="normal" font-size="22" text-anchor="start" direction="ltr" writing-mode="lr-tb" unicode-bidi="normal" text-decoration="none" transform="matrix(0.495851 0 0 0.496154 267.055 146)">No</text></g><g clip-path="url(#clip10)"><text fill="#000000" fill-opacity="1" font-family="Calibri,Calibri_MSFontService,sans-serif" font-style="normal" font-variant="normal" font-weight="400" font-stretch="normal" font-size="22" text-anchor="start" direction="ltr" writing-mode="lr-tb" unicode-bidi="normal" text-decoration="none" transform="matrix(0.495851 0 0 0.496154 266.802 159)">9%</text></g><g clip-path="url(#clip11)"><text fill="#000000" fill-opacity="1" font-family="Calibri,Calibri_MSFontService,sans-serif" font-style="normal" font-variant="normal" font-weight="400" font-stretch="normal" font-size="28" text-anchor="start" direction="ltr" writing-mode="lr-tb" unicode-bidi="normal" text-decoration="none" transform="matrix(0.495851 0 0 0.496154 160.486 110)">Public awareness of antibiotic</text></g><g clip-path="url(#clip12)"><text fill="#000000" fill-opacity="1" font-family="Calibri,Calibri_MSFontService,sans-serif" font-style="normal" font-variant="normal" font-weight="400" font-stretch="normal" font-size="28" text-anchor="start" direction="ltr" writing-mode="lr-tb" unicode-bidi="normal" text-decoration="none" transform="matrix(0.495851 0 0 0.496154 195.637 127)">resistant bacteria</text></g></g></g></g></g></g></svg>