<svg width="201" height="205" xmlns="http://www.w3.org/2000/svg" xmlns:xlink="http://www.w3.org/1999/xlink" overflow="hidden"><defs><clipPath id="clip0"><rect x="64" y="358" width="201" height="205"/></clipPath></defs><g clip-path="url(#clip0)" transform="translate(-64 -358)"><path d="M155.104 234.39C154.883 234.39 154.659 234.367 154.435 234.319 152.719 233.951 151.623 232.273 151.985 230.555 152.061 230.201 152.302 229.272 152.893 227.018 154.093 222.432 157.438 209.649 158.334 204.499 157.088 204.09 155.925 203.583 154.874 202.973 151.447 200.978 147.902 197.036 147.71 192.727 147.583 189.952 148.194 187.881 149.577 186.397 150.41 185.503 151.939 184.425 154.49 184.362 158.163 184.283 161.313 187.405 162.437 190.397 163.656 193.644 164.433 196.654 164.759 199.39 168.061 199.729 171.733 199.474 175.103 198.781 175.235 195.05 175.717 191.923 176.696 190.024 178.319 186.873 181.565 184.774 184.965 184.677 187.736 184.601 190.14 185.866 191.437 188.066 192.523 189.908 192.799 192.012 192.234 194.148 191.473 197.025 189.175 199.743 185.927 201.608 184.611 202.363 183.1 203.036 181.461 203.612 181.916 213.67 184.174 226.951 185.331 229.322 186.259 230.744 185.908 232.658 184.514 233.653 183.081 234.675 181.092 234.343 180.07 232.912 178.407 230.584 175.737 216.88 175.173 205.223 171.696 205.824 168.026 206.023 164.576 205.721 163.729 210.527 161.459 219.448 159.057 228.63 158.655 230.164 158.276 231.613 158.218 231.875 157.892 233.366 156.57 234.39 155.104 234.39ZM154.226 190.78C154.163 190.932 154.025 191.394 154.074 192.44 154.149 194.106 156.107 196.264 157.933 197.38 157.585 195.89 157.095 194.299 156.472 192.636 156.081 191.595 155.021 190.755 154.639 190.73 154.427 190.736 154.296 190.76 154.226 190.78ZM185.2 191.045C185.18 191.045 185.16 191.045 185.147 191.046 184.232 191.072 183.015 191.668 182.359 192.942 181.934 193.768 181.663 195.081 181.516 196.727 181.951 196.521 182.365 196.305 182.756 196.082 184.822 194.896 185.825 193.464 186.074 192.52 186.236 191.905 186.092 191.546 185.949 191.302 185.812 191.072 185.391 191.045 185.2 191.045Z" fill="#002F42" transform="matrix(1 0 0 1.00396 -4.80507 290.564)"/><path d="M169.305 271.047C156.275 271.047 145.626 264.005 145.062 255.015 145.007 254.137 145.316 253.276 145.919 252.635 146.521 251.994 147.362 251.63 148.241 251.63L190.369 251.63C191.249 251.63 192.09 251.994 192.692 252.635 193.294 253.276 193.604 254.138 193.549 255.015 192.984 264.005 182.335 271.047 169.305 271.047ZM152.678 258.001C155.363 261.849 161.978 264.677 169.305 264.677 176.632 264.677 183.247 261.849 185.932 258.001L152.678 258.001Z" fill="#002F42" transform="matrix(1 0 0 1.00396 -4.80507 290.564)"/><path d="M153.148 232.663C146.5 232.663 140.068 230.996 137.939 219.01 136.878 216.82 131.567 205.919 124.656 192.721 123.941 191.557 123.261 190.338 122.583 189.002L122.477 188.821C122.381 188.658 122.284 188.495 122.187 188.336 122.017 188.058 121.893 187.76 121.815 187.453 118.581 180.516 116.942 173.089 116.942 165.369 116.942 136.497 140.432 113.008 169.304 113.008 198.176 113.008 221.665 136.497 221.665 165.369 221.665 173.104 220.021 180.542 216.777 187.49 216.711 187.746 216.613 187.997 216.48 188.234 216.257 188.63 216.038 189.027 215.82 189.422L215.635 189.759C215.459 190.093 215.252 190.481 215.037 190.866 205.915 207.849 201.193 217.537 200.41 219.158 196.881 231.606 190.795 232.644 184.339 232.644 184.339 232.644 184.339 232.644 184.339 232.644L182.519 232.638 156.015 232.638C155.552 232.638 155.087 232.644 154.622 232.65 154.13 232.657 153.638 232.663 153.148 232.663ZM127.966 185.589 128.116 185.844C128.154 185.907 128.189 185.971 128.223 186.036 128.852 187.283 129.477 188.406 130.135 189.47 130.175 189.535 130.212 189.6 130.247 189.668 138.031 204.526 143.815 216.529 143.873 216.648 144.004 216.922 144.096 217.212 144.146 217.512 145.591 226.293 148.926 226.293 153.147 226.293 153.609 226.293 154.072 226.287 154.537 226.28 155.03 226.274 155.523 226.267 156.014 226.267L184.338 226.273C184.348 226.273 184.358 226.273 184.367 226.273 188.864 226.273 191.837 226.253 194.346 217.18 194.397 217 194.462 216.826 194.542 216.658 194.589 216.559 199.356 206.594 209.449 187.804 209.664 187.419 209.846 187.079 210.027 186.735L210.243 186.345C210.368 186.117 210.493 185.889 210.62 185.662 210.661 185.537 210.711 185.414 210.769 185.294 213.772 179.055 215.295 172.351 215.295 165.37 215.295 140.011 194.664 119.38 169.305 119.38 143.945 119.38 123.314 140.011 123.314 165.37 123.314 172.35 124.837 179.053 127.842 185.294 127.889 185.389 127.93 185.489 127.966 185.589Z" fill="#002F42" transform="matrix(1 0 0 1.00396 -4.80507 290.564)"/><path d="M201.284 230.322C201.284 233.418 199.523 235.93 197.346 235.93L141.262 235.93C139.089 235.93 137.324 233.418 137.324 230.322L137.324 230.322C137.324 227.222 139.089 224.713 141.262 224.713L197.346 224.713C199.523 224.713 201.284 227.223 201.284 230.322L201.284 230.322Z" fill="#54BEC7" transform="matrix(1 0 0 1.00396 -4.80507 290.564)"/><path d="M201.284 241.539C201.284 244.636 199.523 247.148 197.346 247.148L141.262 247.148C139.089 247.148 137.324 244.636 137.324 241.539L137.324 241.539C137.324 238.441 139.089 235.931 141.262 235.931L197.346 235.931C199.523 235.93 201.284 238.441 201.284 241.539L201.284 241.539Z" fill="#54BEC7" transform="matrix(1 0 0 1.00396 -4.80507 290.564)"/><path d="M201.284 252.756C201.284 255.852 199.523 258.364 197.346 258.364L141.262 258.364C139.089 258.364 137.324 255.852 137.324 252.756L137.324 252.756C137.324 249.658 139.089 247.148 141.262 247.148L197.346 247.148C199.523 247.148 201.284 249.658 201.284 252.756L201.284 252.756Z" fill="#54BEC7" transform="matrix(1 0 0 1.00396 -4.80507 290.564)"/><path d="M169.305 94.6062C167.546 94.6062 166.12 93.1799 166.12 91.4208L166.12 70.7482C166.12 68.989 167.546 67.5628 169.305 67.5628 171.064 67.5628 172.49 68.989 172.49 70.7482L172.49 91.4208C172.49 93.1799 171.064 94.6062 169.305 94.6062Z" fill="#002F42" transform="matrix(1 0 0 1.00396 -4.80507 290.564)"/><path d="M92.6448 171.266 71.9714 171.266C70.2122 171.266 68.786 169.84 68.786 168.081 68.786 166.322 70.2122 164.896 71.9714 164.896L92.6448 164.896C94.4039 164.896 95.8302 166.322 95.8302 168.081 95.8302 169.84 94.4039 171.266 92.6448 171.266Z" fill="#002F42" transform="matrix(1 0 0 1.00396 -4.80507 290.564)"/><path d="M266.637 171.266 245.965 171.266C244.205 171.266 242.779 169.84 242.779 168.081 242.779 166.322 244.205 164.896 245.965 164.896L266.637 164.896C268.396 164.896 269.823 166.322 269.823 168.081 269.823 169.84 268.396 171.266 266.637 171.266Z" fill="#002F42" transform="matrix(1 0 0 1.00396 -4.80507 290.564)"/><path d="M115.098 117.059C114.283 117.059 113.467 116.748 112.846 116.127L98.2288 101.51C96.9841 100.265 96.9841 98.2487 98.2288 97.0048 99.4719 95.7609 101.491 95.7609 102.733 97.0048L117.35 111.622C118.595 112.867 118.595 114.883 117.35 116.127 116.729 116.748 115.913 117.059 115.098 117.059Z" fill="#002F42" transform="matrix(1 0 0 1.00396 -4.80507 290.564)"/><path d="M238.13 240.091C237.315 240.091 236.5 239.78 235.878 239.159L221.261 224.541C220.016 223.296 220.016 221.28 221.261 220.036 222.504 218.792 224.521 218.792 225.765 220.036L240.382 234.654C241.627 235.899 241.627 237.915 240.382 239.159 239.761 239.78 238.946 240.091 238.13 240.091Z" fill="#002F42" transform="matrix(1 0 0 1.00396 -4.80507 290.564)"/><path d="M100.481 240.091C99.6662 240.091 98.8507 239.779 98.2288 239.158 96.9841 237.913 96.9841 235.897 98.2288 234.653L112.846 220.036C114.089 218.792 116.106 218.792 117.35 220.036 118.595 221.281 118.595 223.297 117.35 224.541L102.733 239.158C102.112 239.779 101.296 240.091 100.481 240.091Z" fill="#002F42" transform="matrix(1 0 0 1.00396 -4.80507 290.564)"/><path d="M223.513 117.059C222.698 117.059 221.882 116.748 221.261 116.127 220.016 114.882 220.016 112.866 221.261 111.622L235.878 97.0048C237.121 95.7609 239.14 95.7609 240.382 97.0048 241.627 98.2495 241.627 100.266 240.382 101.51L225.765 116.127C225.144 116.748 224.328 117.059 223.513 117.059Z" fill="#002F42" transform="matrix(1 0 0 1.00396 -4.80507 290.564)"/></g></svg>